Bodoni-16-Book.ufo
<glyph name="exclam" format="2">
  <advance width="633"/>
  <unicode hex="0021"/>
  <outline>
    <contour>
      <point x="433" y="1318" type="curve" smooth="yes"/>
      <point x="411" y="966"/>
      <point x="329" y="716"/>
      <point x="329" y="416" type="curve"/>
      <point x="302" y="416" type="line"/>
      <point x="302" y="716"/>
      <point x="219" y="966"/>
      <point x="197" y="1318" type="curve" smooth="yes"/>
      <point x="197" y="1332"/>
      <point x="197" y="1344"/>
      <point x="197" y="1356" type="curve" smooth="yes"/>
      <point x="197" y="1448"/>
      <point x="221" y="1516"/>
      <point x="315" y="1516" type="curve" smooth="yes"/>
      <point x="409" y="1516"/>
      <point x="435" y="1448"/>
      <point x="435" y="1356" type="curve" smooth="yes"/>
      <point x="435" y="1344"/>
      <point x="433" y="1332"/>
    </contour>
    <component base="period" xOffset="117"/>
  </outline>
</glyph>
<glyph name="dollar" format="2">
  <advance width="1109"/>
  <unicode hex="0024"/>
  <outline>
    <contour>
      <point x="624" y="1660" type="line"/>
      <point x="650" y="1660" type="line"/>
      <point x="650" y="-160" type="line"/>
      <point x="624" y="-160" type="line"/>
    </contour>
    <contour>
      <point x="446" y="1660" type="line"/>
      <point x="473" y="1660" type="line"/>
      <point x="473" y="-160" type="line"/>
      <point x="446" y="-160" type="line"/>
    </contour>
    <contour>
      <point x="959" y="1251" type="curve"/>
      <point x="939" y="1370"/>
      <point x="797" y="1494"/>
      <point x="589" y="1494" type="curve" smooth="yes"/>
      <point x="377" y="1494"/>
      <point x="260" y="1368"/>
      <point x="260" y="1210" type="curve" smooth="yes"/>
      <point x="260" y="840"/>
      <point x="1030" y="960"/>
      <point x="1030" y="420" type="curve" smooth="yes"/>
      <point x="1030" y="140"/>
      <point x="839" y="-30"/>
      <point x="557" y="-30" type="curve" smooth="yes"/>
      <point x="212" y="-30"/>
      <point x="60" y="160"/>
      <point x="60" y="290" type="curve" smooth="yes"/>
      <point x="60" y="382"/>
      <point x="112" y="454"/>
      <point x="200" y="454" type="curve" smooth="yes"/>
      <point x="260" y="454"/>
      <point x="328" y="410"/>
      <point x="328" y="322" type="curve" smooth="yes"/>
      <point x="328" y="242"/>
      <point x="262" y="192"/>
      <point x="194" y="192" type="curve" smooth="yes"/>
      <point x="153" y="192"/>
      <point x="116" y="216"/>
      <point x="95" y="239" type="curve"/>
      <point x="124" y="143"/>
      <point x="257" y="-6"/>
      <point x="553" y="-6" type="curve" smooth="yes"/>
      <point x="765" y="-6"/>
      <point x="890" y="132"/>
      <point x="890" y="330" type="curve" smooth="yes"/>
      <point x="890" y="740"/>
      <point x="120" y="610"/>
      <point x="120" y="1130" type="curve" smooth="yes"/>
      <point x="120" y="1370"/>
      <point x="345" y="1520"/>
      <point x="587" y="1520" type="curve" smooth="yes"/>
      <point x="816" y="1520"/>
      <point x="990" y="1372"/>
      <point x="990" y="1210" type="curve" smooth="yes"/>
      <point x="990" y="1118"/>
      <point x="938" y="1046"/>
      <point x="850" y="1046" type="curve" smooth="yes"/>
      <point x="790" y="1046"/>
      <point x="722" y="1090"/>
      <point x="722" y="1178" type="curve" smooth="yes"/>
      <point x="722" y="1258"/>
      <point x="788" y="1308"/>
      <point x="856" y="1308" type="curve" smooth="yes"/>
      <point x="899" y="1308"/>
      <point x="943" y="1282"/>
    </contour>
  </outline>
</glyph>
<glyph name="ampersand" format="2">
  <advance width="3292"/>
  <unicode hex="0026"/>
  <outline>
    <contour>
      <point x="1427" y="1774" type="curve"/>
      <point x="1398" y="1812" type="line"/>
      <point x="1594" y="1933"/>
      <point x="1847" y="2162"/>
      <point x="1847" y="2580" type="curve" smooth="yes"/>
      <point x="1847" y="2773"/>
      <point x="1777" y="3064"/>
      <point x="1470" y="3064" type="curve" smooth="yes"/>
      <point x="1155" y="3064"/>
      <point x="1049" y="2838"/>
      <point x="1049" y="2621" type="curve" smooth="yes"/>
      <point x="1049" y="2478"/>
      <point x="1151" y="2269"/>
      <point x="1327" y="2007" type="curve" smooth="yes"/>
      <point x="2611" y="56" type="line"/>
      <point x="3150" y="56" type="line"/>
      <point x="3150" y="0" type="line"/>
      <point x="2191" y="0" type="line"/>
      <point x="836" y="2007" type="line" smooth="yes"/>
      <point x="730" y="2163"/>
      <point x="647" y="2368"/>
      <point x="647" y="2511" type="curve" smooth="yes"/>
      <point x="647" y="2880"/>
      <point x="995" y="3113"/>
      <point x="1470" y="3113" type="curve" smooth="yes"/>
      <point x="1908" y="3113"/>
      <point x="2242" y="2898"/>
      <point x="2242" y="2570" type="curve" smooth="yes"/>
      <point x="2242" y="2126"/>
      <point x="1859" y="1998"/>
    </contour>
    <contour>
      <point x="1136" y="1656" type="curve"/>
      <point x="1156" y="1617" type="line"/>
      <point x="806" y="1429"/>
      <point x="614" y="1179"/>
      <point x="614" y="728" type="curve" smooth="yes"/>
      <point x="614" y="401"/>
      <point x="881" y="71"/>
      <point x="1266" y="71" type="curve" smooth="yes"/>
      <point x="2055" y="71"/>
      <point x="2668" y="1016"/>
      <point x="2746" y="1870" type="curve"/>
      <point x="2802" y="1870" type="line"/>
      <point x="2706" y="957"/>
      <point x="2056" y="-41"/>
      <point x="1102" y="-41" type="curve" smooth="yes"/>
      <point x="557" y="-41"/>
      <point x="164" y="233"/>
      <point x="164" y="707" type="curve" smooth="yes"/>
      <point x="164" y="1302"/>
      <point x="981" y="1580"/>
    </contour>
    <contour>
      <point x="2228" y="1884" type="line"/>
      <point x="3211" y="1884" type="line"/>
      <point x="3211" y="1828" type="line"/>
      <point x="2228" y="1828" type="line"/>
    </contour>
  </outline>
</glyph>
<glyph name="quotesingle" format="2">
  <advance width="818"/>
  <unicode hex="0027"/>
  <outline>
    <contour>
      <point x="610" y="2789" type="curve" smooth="yes"/>
      <point x="565" y="2482"/>
      <point x="438" y="2450"/>
      <point x="438" y="1999" type="curve"/>
      <point x="382" y="1999" type="line"/>
      <point x="382" y="2450"/>
      <point x="254" y="2482"/>
      <point x="209" y="2789" type="curve" smooth="yes"/>
      <point x="205" y="2818"/>
      <point x="205" y="2838"/>
      <point x="205" y="2863" type="curve" smooth="yes"/>
      <point x="205" y="3023"/>
      <point x="291" y="3113"/>
      <point x="410" y="3113" type="curve" smooth="yes"/>
      <point x="529" y="3113"/>
      <point x="614" y="3023"/>
      <point x="614" y="2863" type="curve" smooth="yes"/>
      <point x="614" y="2838"/>
      <point x="614" y="2818"/>
    </contour>
  </outline>
</glyph>
<glyph name="parenleft" format="2">
  <advance width="723"/>
  <unicode hex="0028"/>
  <outline>
    <contour>
      <point x="699" y="-319" type="curve"/>
      <point x="686" y="-340" type="line"/>
      <point x="360" y="-200"/>
      <point x="130" y="184"/>
      <point x="130" y="650" type="curve" smooth="yes"/>
      <point x="130" y="1116"/>
      <point x="360" y="1460"/>
      <point x="686" y="1600" type="curve"/>
      <point x="699" y="1579" type="line"/>
      <point x="451" y="1419"/>
      <point x="320" y="1034"/>
      <point x="320" y="650" type="curve" smooth="yes"/>
      <point x="320" y="266"/>
      <point x="451" y="-159"/>
    </contour>
  </outline>
</glyph>
<glyph name="plus" format="2">
  <advance width="1059"/>
  <unicode hex="002B"/>
  <outline>
    <contour>
      <point x="517" y="220" type="line"/>
      <point x="517" y="1040" type="line"/>
      <point x="544" y="1040" type="line"/>
      <point x="544" y="220" type="line"/>
    </contour>
    <contour>
      <point x="120" y="646" type="line"/>
      <point x="940" y="646" type="line"/>
      <point x="940" y="618" type="line"/>
      <point x="120" y="618" type="line"/>
    </contour>
  </outline>
</glyph>
<glyph name="comma" format="2">
  <advance width="429"/>
  <unicode hex="002C"/>
  <outline>
    <contour>
      <point x="80" y="98" type="curve" smooth="yes"/>
      <point x="80" y="164"/>
      <point x="138" y="216"/>
      <point x="214" y="216" type="curve" smooth="yes"/>
      <point x="292" y="216"/>
      <point x="354" y="154"/>
      <point x="354" y="8" type="curve" smooth="yes"/>
      <point x="354" y="-132"/>
      <point x="256" y="-300"/>
      <point x="76" y="-300" type="curve"/>
      <point x="76" y="-273" type="line"/>
      <point x="230" y="-273"/>
      <point x="350" y="-121"/>
      <point x="318" y="70" type="curve"/>
      <point x="303" y="21"/>
      <point x="260" y="-20"/>
      <point x="199" y="-20" type="curve" smooth="yes"/>
      <point x="120" y="-20"/>
      <point x="80" y="32"/>
    </contour>
  </outline>
</glyph>
<glyph name="two" format="2">
  <advance width="1099"/>
  <unicode hex="0032"/>
  <outline>
    <contour>
      <point x="1030" y="0" type="line"/>
      <point x="80" y="0" type="line"/>
      <point x="80" y="130" type="line"/>
      <point x="517" y="556" type="line" smooth="yes"/>
      <point x="692" y="727"/>
      <point x="788" y="912"/>
      <point x="788" y="1100" type="curve" smooth="yes"/>
      <point x="788" y="1323"/>
      <point x="689" y="1480"/>
      <point x="488" y="1480" type="curve" smooth="yes"/>
      <point x="280" y="1480"/>
      <point x="132" y="1309"/>
      <point x="135" y="1107" type="curve"/>
      <point x="158" y="1140"/>
      <point x="185" y="1164"/>
      <point x="238" y="1164" type="curve" smooth="yes"/>
      <point x="296" y="1164"/>
      <point x="356" y="1122"/>
      <point x="356" y="1052" type="curve" smooth="yes"/>
      <point x="356" y="972"/>
      <point x="300" y="924"/>
      <point x="230" y="924" type="curve" smooth="yes"/>
      <point x="160" y="924"/>
      <point x="104" y="975"/>
      <point x="104" y="1093" type="curve" smooth="yes"/>
      <point x="104" y="1327"/>
      <point x="255" y="1520"/>
      <point x="550" y="1520" type="curve" smooth="yes"/>
      <point x="832" y="1520"/>
      <point x="988" y="1340"/>
      <point x="988" y="1140" type="curve" smooth="yes"/>
      <point x="988" y="940"/>
      <point x="843" y="832"/>
      <point x="735" y="726" type="curve" smooth="yes"/>
      <point x="172" y="180" type="line"/>
      <point x="1003" y="180" type="line"/>
      <point x="1003" y="330" type="line"/>
      <point x="1030" y="330" type="line"/>
    </contour>
  </outline>
</glyph>
<glyph name="three" format="2">
  <advance width="2129"/>
  <unicode hex="0033"/>
  <outline>
    <contour>
      <point x="1966" y="819" type="curve" smooth="yes"/>
      <point x="1966" y="287"/>
      <point x="1520" y="-41"/>
      <point x="942" y="-41" type="curve" smooth="yes"/>
      <point x="360" y="-41"/>
      <point x="98" y="259"/>
      <point x="98" y="554" type="curve" smooth="yes"/>
      <point x="98" y="722"/>
      <point x="201" y="820"/>
      <point x="344" y="820" type="curve" smooth="yes"/>
      <point x="467" y="820"/>
      <point x="566" y="738"/>
      <point x="566" y="591" type="curve" smooth="yes"/>
      <point x="566" y="460"/>
      <point x="451" y="369"/>
      <point x="332" y="369" type="curve" smooth="yes"/>
      <point x="245" y="369"/>
      <point x="191" y="410"/>
      <point x="165" y="461" type="curve"/>
      <point x="188" y="267"/>
      <point x="434" y="20"/>
      <point x="889" y="20" type="curve" smooth="yes"/>
      <point x="1376" y="20"/>
      <point x="1552" y="434"/>
      <point x="1552" y="819" type="curve" smooth="yes"/>
      <point x="1552" y="1122"/>
      <point x="1438" y="1632"/>
      <point x="746" y="1632" type="curve"/>
      <point x="746" y="1668" type="line"/>
      <point x="1733" y="1668"/>
      <point x="1966" y="1270"/>
    </contour>
    <contour>
      <point x="746" y="1650" type="curve"/>
      <point x="746" y="1686" type="line"/>
      <point x="1397" y="1686"/>
      <point x="1430" y="2159"/>
      <point x="1430" y="2421" type="curve" smooth="yes"/>
      <point x="1430" y="2724"/>
      <point x="1273" y="3052"/>
      <point x="949" y="3052" type="curve" smooth="yes"/>
      <point x="655" y="3052"/>
      <point x="363" y="2886"/>
      <point x="300" y="2659" type="curve"/>
      <point x="340" y="2717"/>
      <point x="396" y="2740"/>
      <point x="455" y="2740" type="curve" smooth="yes"/>
      <point x="574" y="2740"/>
      <point x="688" y="2661"/>
      <point x="688" y="2518" type="curve" smooth="yes"/>
      <point x="688" y="2354"/>
      <point x="557" y="2289"/>
      <point x="455" y="2289" type="curve" smooth="yes"/>
      <point x="332" y="2289"/>
      <point x="222" y="2375"/>
      <point x="222" y="2543" type="curve" smooth="yes"/>
      <point x="222" y="2838"/>
      <point x="566" y="3109"/>
      <point x="984" y="3109" type="curve" smooth="yes"/>
      <point x="1439" y="3109"/>
      <point x="1844" y="2872"/>
      <point x="1844" y="2421" type="curve" smooth="yes"/>
      <point x="1844" y="2011"/>
      <point x="1692" y="1650"/>
    </contour>
  </outline>
</glyph>
<glyph name="four" format="2">
  <advance width="1189"/>
  <unicode hex="0034"/>
  <outline>
    <contour>
      <point x="1100" y="27" type="line"/>
      <point x="1100" y="0" type="line"/>
      <point x="570" y="0" type="line"/>
      <point x="570" y="27" type="line"/>
      <point x="760" y="27" type="line"/>
      <point x="760" y="1404" type="line"/>
      <point x="118" y="443" type="line"/>
      <point x="1170" y="443" type="line"/>
      <point x="1170" y="416" type="line"/>
      <point x="66" y="416" type="line"/>
      <point x="790" y="1500" type="line"/>
      <point x="950" y="1500" type="line"/>
      <point x="950" y="27" type="line"/>
    </contour>
  </outline>
</glyph>
<glyph name="six" format="2">
  <advance width="1119"/>
  <unicode hex="0036"/>
  <outline>
    <contour>
      <point x="860" y="500" type="curve" smooth="yes"/>
      <point x="860" y="768"/>
      <point x="756" y="940"/>
      <point x="578" y="940" type="curve" smooth="yes"/>
      <point x="384" y="940"/>
      <point x="300" y="780"/>
      <point x="300" y="560" type="curve"/>
      <point x="277" y="560" type="line"/>
      <point x="277" y="794"/>
      <point x="360" y="980"/>
      <point x="622" y="980" type="curve" smooth="yes"/>
      <point x="824" y="980"/>
      <point x="1060" y="840"/>
      <point x="1060" y="500" type="curve" smooth="yes"/>
      <point x="1060" y="200"/>
      <point x="890" y="-20"/>
      <point x="588" y="-20" type="curve" smooth="yes"/>
      <point x="286" y="-20"/>
      <point x="100" y="200"/>
      <point x="100" y="620" type="curve" smooth="yes"/>
      <point x="100" y="1106"/>
      <point x="464" y="1520"/>
      <point x="910" y="1520" type="curve"/>
      <point x="910" y="1495" type="line"/>
      <point x="562" y="1495"/>
      <point x="303" y="1104"/>
      <point x="303" y="680" type="curve"/>
      <point x="300" y="560" type="line"/>
      <point x="300" y="292"/>
      <point x="376" y="7"/>
      <point x="594" y="7" type="curve" smooth="yes"/>
      <point x="812" y="7"/>
      <point x="860" y="272"/>
    </contour>
  </outline>
</glyph>
<glyph name="seven" format="2">
  <advance width="1009"/>
  <unicode hex="0037"/>
  <outline>
    <contour>
      <point x="336" y="152" type="curve" smooth="yes"/>
      <point x="336" y="310"/>
      <point x="476" y="518"/>
      <point x="588" y="736" type="curve" smooth="yes"/>
      <point x="666" y="886"/>
      <point x="788" y="1136"/>
      <point x="870" y="1310" type="curve"/>
      <point x="107" y="1310" type="line"/>
      <point x="107" y="1160" type="line"/>
      <point x="80" y="1160" type="line"/>
      <point x="80" y="1500" type="line"/>
      <point x="990" y="1500" type="line"/>
      <point x="990" y="1500"/>
      <point x="754" y="1013"/>
      <point x="617" y="735" type="curve" smooth="yes"/>
      <point x="525" y="547"/>
      <point x="495" y="479"/>
      <point x="495" y="391" type="curve" smooth="yes"/>
      <point x="495" y="245"/>
      <point x="596" y="215"/>
      <point x="596" y="116" type="curve" smooth="yes"/>
      <point x="596" y="42"/>
      <point x="556" y="-20"/>
      <point x="468" y="-20" type="curve" smooth="yes"/>
      <point x="390" y="-20"/>
      <point x="336" y="27"/>
    </contour>
  </outline>
</glyph>
<glyph name="question" format="2">
  <advance width="1099"/>
  <unicode hex="003F"/>
  <outline>
    <contour>
      <point x="480" y="702" type="line"/>
      <point x="694" y="751"/>
      <point x="798" y="934"/>
      <point x="798" y="1120" type="curve" smooth="yes"/>
      <point x="798" y="1308"/>
      <point x="757" y="1492"/>
      <point x="519" y="1492" type="curve" smooth="yes"/>
      <point x="312" y="1492"/>
      <point x="174" y="1337"/>
      <point x="154" y="1239" type="curve"/>
      <point x="166" y="1258"/>
      <point x="195" y="1280"/>
      <point x="237" y="1280" type="curve" smooth="yes"/>
      <point x="295" y="1280"/>
      <point x="348" y="1240"/>
      <point x="348" y="1170" type="curve" smooth="yes"/>
      <point x="348" y="1090"/>
      <point x="284" y="1058"/>
      <point x="234" y="1058" type="curve" smooth="yes"/>
      <point x="174" y="1058"/>
      <point x="120" y="1100"/>
      <point x="120" y="1182" type="curve" smooth="yes"/>
      <point x="120" y="1346"/>
      <point x="308" y="1520"/>
      <point x="532" y="1520" type="curve" smooth="yes"/>
      <point x="814" y="1520"/>
      <point x="1000" y="1360"/>
      <point x="1000" y="1120" type="curve" smooth="yes"/>
      <point x="1000" y="890"/>
      <point x="790" y="705"/>
      <point x="508" y="687" type="curve"/>
      <point x="508" y="418" type="line"/>
      <point x="480" y="418" type="line"/>
    </contour>
    <component base="period" xOffset="298"/>
  </outline>
</glyph>
<glyph name="at" format="2">
  <advance width="2019"/>
  <unicode hex="0040"/>
  <outline>
    <contour>
      <point x="1249" y="705" type="curve" smooth="yes"/>
      <point x="1249" y="394"/>
      <point x="1068" y="140"/>
      <point x="868" y="140" type="curve" smooth="yes"/>
      <point x="710" y="140"/>
      <point x="568" y="252"/>
      <point x="568" y="460" type="curve" smooth="yes"/>
      <point x="568" y="760"/>
      <point x="798" y="1058"/>
      <point x="1036" y="1058" type="curve" smooth="yes"/>
      <point x="1198" y="1058"/>
      <point x="1249" y="869"/>
    </contour>
    <contour>
      <point x="1227" y="692" type="curve" smooth="yes"/>
      <point x="1227" y="776"/>
      <point x="1207" y="1021"/>
      <point x="1061" y="1021" type="curve" smooth="yes"/>
      <point x="913" y="1021"/>
      <point x="770" y="714"/>
      <point x="770" y="466" type="curve" smooth="yes"/>
      <point x="770" y="332"/>
      <point x="800" y="179"/>
      <point x="914" y="179" type="curve" smooth="yes"/>
      <point x="1055" y="179"/>
      <point x="1227" y="429"/>
    </contour>
    <contour>
      <point x="1180" y="420" type="curve" smooth="yes"/>
      <point x="1324" y="1040" type="line"/>
      <point x="1504" y="1040" type="line"/>
      <point x="1360" y="420" type="line" smooth="yes"/>
      <point x="1354" y="394"/>
      <point x="1266" y="170"/>
      <point x="1420" y="170" type="curve" smooth="yes"/>
      <point x="1684" y="170"/>
      <point x="1883" y="490"/>
      <point x="1883" y="802" type="curve" smooth="yes"/>
      <point x="1883" y="1159"/>
      <point x="1661" y="1553"/>
      <point x="1168" y="1553" type="curve" smooth="yes"/>
      <point x="602" y="1553"/>
      <point x="138" y="1033"/>
      <point x="138" y="422" type="curve" smooth="yes"/>
      <point x="138" y="-183"/>
      <point x="485" y="-400"/>
      <point x="838" y="-400" type="curve" smooth="yes"/>
      <point x="1165" y="-400"/>
      <point x="1374" y="-303"/>
      <point x="1549" y="-108" type="curve"/>
      <point x="1570" y="-128" type="line"/>
      <point x="1402" y="-324"/>
      <point x="1164" y="-428"/>
      <point x="838" y="-428" type="curve" smooth="yes"/>
      <point x="472" y="-428"/>
      <point x="110" y="-205"/>
      <point x="110" y="422" type="curve" smooth="yes"/>
      <point x="110" y="1048"/>
      <point x="584" y="1580"/>
      <point x="1170" y="1580" type="curve" smooth="yes"/>
      <point x="1676" y="1580"/>
      <point x="1910" y="1168"/>
      <point x="1910" y="802" type="curve" smooth="yes"/>
      <point x="1910" y="482"/>
      <point x="1724" y="136"/>
      <point x="1382" y="136" type="curve" smooth="yes"/>
      <point x="1204" y="136"/>
      <point x="1152" y="296"/>
    </contour>
  </outline>
</glyph>
<glyph name="A" format="2">
  <advance width="1519"/>
  <unicode hex="0041"/>
  <outline>
    <contour>
      <point x="53" y="27" type="line"/>
      <point x="494" y="27" type="line"/>
      <point x="494" y="0" type="line"/>
      <point x="53" y="0" type="line"/>
    </contour>
    <contour>
      <point x="887" y="27" type="line"/>
      <point x="1467" y="27" type="line"/>
      <point x="1467" y="0" type="line"/>
      <point x="887" y="0" type="line"/>
    </contour>
    <contour>
      <point x="421" y="502" type="line"/>
      <point x="1065" y="502" type="line"/>
      <point x="1065" y="475" type="line"/>
      <point x="421" y="475" type="line"/>
    </contour>
    <contour>
      <point x="700" y="1256" type="line"/>
      <point x="262" y="0" type="line"/>
      <point x="231" y="0" type="line"/>
      <point x="767" y="1530" type="line"/>
      <point x="794" y="1530" type="line"/>
      <point x="1325" y="0" type="line"/>
      <point x="1105" y="0" type="line"/>
    </contour>
  </outline>
</glyph>
<glyph name="B" format="2">
  <advance width="1293"/>
  <unicode hex="0042"/>
  <outline>
    <contour>
      <point x="633" y="765" type="curve" smooth="yes"/>
      <point x="414" y="765" type="line"/>
      <point x="414" y="784" type="line"/>
      <point x="633" y="784" type="line" smooth="yes"/>
      <point x="785" y="784"/>
      <point x="933" y="872"/>
      <point x="933" y="1110" type="curve" smooth="yes"/>
      <point x="933" y="1348"/>
      <point x="785" y="1473"/>
      <point x="633" y="1473" type="curve" smooth="yes"/>
      <point x="53" y="1473" type="line"/>
      <point x="53" y="1500" type="line"/>
      <point x="633" y="1500" type="line" smooth="yes"/>
      <point x="935" y="1500"/>
      <point x="1133" y="1390"/>
      <point x="1133" y="1130" type="curve" smooth="yes"/>
      <point x="1133" y="870"/>
      <point x="955" y="765"/>
    </contour>
    <contour>
      <point x="233" y="1500" type="line"/>
      <point x="423" y="1500" type="line"/>
      <point x="423" y="0" type="line"/>
      <point x="233" y="0" type="line"/>
    </contour>
    <contour>
      <point x="673" y="0" type="curve" smooth="yes"/>
      <point x="53" y="0" type="line"/>
      <point x="53" y="27" type="line"/>
      <point x="653" y="27" type="line" smooth="yes"/>
      <point x="825" y="27"/>
      <point x="973" y="182"/>
      <point x="973" y="420" type="curve" smooth="yes"/>
      <point x="973" y="658"/>
      <point x="825" y="756"/>
      <point x="653" y="756" type="curve" smooth="yes"/>
      <point x="414" y="756" type="line"/>
      <point x="414" y="775" type="line"/>
      <point x="673" y="775" type="line" smooth="yes"/>
      <point x="955" y="775"/>
      <point x="1193" y="680"/>
      <point x="1193" y="420" type="curve" smooth="yes"/>
      <point x="1193" y="120"/>
      <point x="995" y="0"/>
    </contour>
  </outline>
</glyph>
<glyph name="C" format="2">
  <advance width="1398"/>
  <unicode hex="0043"/>
  <outline>
    <contour>
      <point x="1238" y="1500" type="line"/>
      <point x="1262" y="1500" type="line"/>
      <point x="1262" y="1090" type="line"/>
      <point x="1241" y="1215"/>
      <point x="1184" y="1311"/>
      <point x="1123" y="1381" type="curve"/>
    </contour>
    <contour>
      <point x="1262" y="1090" type="curve"/>
      <point x="1235" y="1090" type="line"/>
      <point x="1228" y="1327"/>
      <point x="1022" y="1485"/>
      <point x="801" y="1485" type="curve" smooth="yes"/>
      <point x="453" y="1485"/>
      <point x="331" y="1114"/>
      <point x="331" y="750" type="curve" smooth="yes"/>
      <point x="331" y="386"/>
      <point x="453" y="15"/>
      <point x="801" y="15" type="curve" smooth="yes"/>
      <point x="1069" y="15"/>
      <point x="1248" y="193"/>
      <point x="1255" y="410" type="curve"/>
      <point x="1282" y="410" type="line"/>
      <point x="1282" y="164"/>
      <point x="1067" y="-20"/>
      <point x="781" y="-20" type="curve" smooth="yes"/>
      <point x="375" y="-20"/>
      <point x="101" y="304"/>
      <point x="101" y="750" type="curve" smooth="yes"/>
      <point x="101" y="1196"/>
      <point x="375" y="1520"/>
      <point x="781" y="1520" type="curve" smooth="yes"/>
      <point x="1037" y="1520"/>
      <point x="1262" y="1336"/>
    </contour>
    <contour>
      <point x="1282" y="410" type="curve"/>
      <point x="1282" y="0" type="line"/>
      <point x="1258" y="0" type="line"/>
      <point x="1149" y="132" type="line"/>
      <point x="1208" y="203"/>
      <point x="1258" y="276"/>
    </contour>
  </outline>
</glyph>
<glyph name="D" format="2">
  <advance width="2937"/>
  <unicode hex="0044"/>
  <outline>
    <contour>
      <point x="478" y="3072" type="line"/>
      <point x="867" y="3072" type="line"/>
      <point x="867" y="0" type="line"/>
      <point x="478" y="0" type="line"/>
    </contour>
    <contour>
      <point x="1256" y="0" type="curve" smooth="yes"/>
      <point x="109" y="0" type="line"/>
      <point x="109" y="56" type="line"/>
      <point x="1256" y="56" type="line" smooth="yes"/>
      <point x="2010" y="56"/>
      <point x="2259" y="791"/>
      <point x="2259" y="1536" type="curve" smooth="yes"/>
      <point x="2259" y="2281"/>
      <point x="1969" y="3016"/>
      <point x="1256" y="3016" type="curve" smooth="yes"/>
      <point x="109" y="3016" type="line"/>
      <point x="109" y="3072" type="line"/>
      <point x="1256" y="3072" type="line" smooth="yes"/>
      <point x="2169" y="3072"/>
      <point x="2731" y="2408"/>
      <point x="2731" y="1536" type="curve" smooth="yes"/>
      <point x="2731" y="664"/>
      <point x="2128" y="0"/>
    </contour>
  </outline>
</glyph>
<glyph name="E" format="2">
  <advance width="1212"/>
  <unicode hex="0045"/>
  <outline>
    <contour>
      <point x="1107" y="450" type="curve"/>
      <point x="1135" y="450" type="line"/>
      <point x="1135" y="0" type="line"/>
      <point x="53" y="0" type="line"/>
      <point x="53" y="27" type="line"/>
      <point x="744" y="27" type="line" smooth="yes"/>
      <point x="1018" y="27"/>
      <point x="1107" y="196"/>
    </contour>
    <contour>
      <point x="233" y="1500" type="line"/>
      <point x="423" y="1500" type="line"/>
      <point x="423" y="0" type="line"/>
      <point x="233" y="0" type="line"/>
    </contour>
    <contour>
      <point x="53" y="1500" type="line"/>
      <point x="1114" y="1500" type="line"/>
      <point x="1114" y="1090" type="line"/>
      <point x="1087" y="1090" type="line"/>
      <point x="1087" y="1304"/>
      <point x="997" y="1473"/>
      <point x="763" y="1473" type="curve" smooth="yes"/>
      <point x="53" y="1473" type="line"/>
    </contour>
    <contour>
      <point x="747" y="556" type="line"/>
      <point x="747" y="690"/>
      <point x="657" y="763"/>
      <point x="543" y="763" type="curve" smooth="yes"/>
      <point x="383" y="763" type="line"/>
      <point x="383" y="790" type="line"/>
      <point x="543" y="790" type="line" smooth="yes"/>
      <point x="657" y="790"/>
      <point x="747" y="852"/>
      <point x="747" y="986" type="curve"/>
      <point x="774" y="986" type="line"/>
      <point x="774" y="556" type="line"/>
    </contour>
  </outline>
</glyph>
<glyph name="F" format="2">
  <advance width="2401"/>
  <unicode hex="0046"/>
  <outline>
    <contour>
      <point x="109" y="3072" type="line"/>
      <point x="2242" y="3072" type="line"/>
      <point x="2242" y="2232" type="line"/>
      <point x="2186" y="2232" type="line"/>
      <point x="2186" y="2670"/>
      <point x="2002" y="3016"/>
      <point x="1523" y="3016" type="curve" smooth="yes"/>
      <point x="109" y="3016" type="line"/>
    </contour>
    <contour>
      <point x="109" y="56" type="line"/>
      <point x="1277" y="56" type="line"/>
      <point x="1277" y="0" type="line"/>
      <point x="109" y="0" type="line"/>
    </contour>
    <contour>
      <point x="478" y="3072" type="line"/>
      <point x="867" y="3072" type="line"/>
      <point x="867" y="0" type="line"/>
      <point x="478" y="0" type="line"/>
    </contour>
    <contour>
      <point x="1571" y="1098" type="line"/>
      <point x="1571" y="1372"/>
      <point x="1407" y="1500"/>
      <point x="1051" y="1500" type="curve" smooth="yes"/>
      <point x="785" y="1500" type="line"/>
      <point x="785" y="1556" type="line"/>
      <point x="1051" y="1556" type="line" smooth="yes"/>
      <point x="1407" y="1556"/>
      <point x="1571" y="1663"/>
      <point x="1571" y="1937" type="curve"/>
      <point x="1627" y="1937" type="line"/>
      <point x="1627" y="1098" type="line"/>
    </contour>
  </outline>
</glyph>
<glyph name="G" format="2">
  <advance width="1459"/>
  <unicode hex="0047"/>
  <outline>
    <contour>
      <point x="1262" y="1090" type="line"/>
      <point x="1243" y="1200"/>
      <point x="1188" y="1308"/>
      <point x="1123" y="1382" type="curve"/>
      <point x="1238" y="1500" type="line"/>
      <point x="1262" y="1500" type="line"/>
    </contour>
    <contour>
      <point x="881" y="585" type="line"/>
      <point x="1421" y="585" type="line"/>
      <point x="1421" y="555" type="line"/>
      <point x="881" y="555" type="line"/>
    </contour>
    <contour>
      <point x="1091" y="567" type="line"/>
      <point x="1301" y="567" type="line"/>
      <point x="1301" y="330" type="line"/>
      <point x="1241" y="204"/>
      <point x="1077" y="-20"/>
      <point x="751" y="-20" type="curve" smooth="yes"/>
      <point x="335" y="-20"/>
      <point x="101" y="304"/>
      <point x="101" y="750" type="curve" smooth="yes"/>
      <point x="101" y="1196"/>
      <point x="375" y="1520"/>
      <point x="781" y="1520" type="curve" smooth="yes"/>
      <point x="1037" y="1520"/>
      <point x="1262" y="1336"/>
      <point x="1262" y="1090" type="curve"/>
      <point x="1235" y="1090" type="line"/>
      <point x="1228" y="1330"/>
      <point x="1024" y="1485"/>
      <point x="801" y="1485" type="curve" smooth="yes"/>
      <point x="453" y="1485"/>
      <point x="331" y="1114"/>
      <point x="331" y="750" type="curve" smooth="yes"/>
      <point x="331" y="386"/>
      <point x="413" y="8"/>
      <point x="751" y="8" type="curve" smooth="yes"/>
      <point x="999" y="8"/>
      <point x="1071" y="206"/>
      <point x="1091" y="250" type="curve"/>
    </contour>
  </outline>
</glyph>
<glyph name="H" format="2">
  <advance width="1506"/>
  <unicode hex="0048"/>
  <outline>
    <contour>
      <point x="383" y="754" type="line"/>
      <point x="1124" y="754" type="line"/>
      <point x="1124" y="727" type="line"/>
      <point x="383" y="727" type="line"/>
    </contour>
    <contour>
      <point x="883" y="27" type="line"/>
      <point x="1454" y="27" type="line"/>
      <point x="1454" y="0" type="line"/>
      <point x="883" y="0" type="line"/>
    </contour>
    <contour>
      <point x="53" y="27" type="line"/>
      <point x="624" y="27" type="line"/>
      <point x="624" y="0" type="line"/>
      <point x="53" y="0" type="line"/>
    </contour>
    <contour>
      <point x="883" y="1500" type="line"/>
      <point x="1454" y="1500" type="line"/>
      <point x="1454" y="1473" type="line"/>
      <point x="883" y="1473" type="line"/>
    </contour>
    <contour>
      <point x="53" y="1500" type="line"/>
      <point x="624" y="1500" type="line"/>
      <point x="624" y="1473" type="line"/>
      <point x="53" y="1473" type="line"/>
    </contour>
    <contour>
      <point x="1083" y="1500" type="line"/>
      <point x="1273" y="1500" type="line"/>
      <point x="1273" y="0" type="line"/>
      <point x="1083" y="0" type="line"/>
    </contour>
    <contour>
      <point x="233" y="1500" type="line"/>
      <point x="423" y="1500" type="line"/>
      <point x="423" y="0" type="line"/>
      <point x="233" y="0" type="line"/>
    </contour>
  </outline>
</glyph>
<glyph name="I" format="2">
  <advance width="1549"/>
  <unicode hex="0049"/>
  <outline>
    <contour>
      <point x="109" y="56" type="line"/>
      <point x="1441" y="56" type="line"/>
      <point x="1441" y="0" type="line"/>
      <point x="109" y="0" type="line"/>
    </contour>
    <contour>
      <point x="109" y="3072" type="line"/>
      <point x="1441" y="3072" type="line"/>
      <point x="1441" y="3016" type="line"/>
      <point x="109" y="3016" type="line"/>
    </contour>
    <contour>
      <point x="559" y="3072" type="line"/>
      <point x="949" y="3072" type="line"/>
      <point x="949" y="0" type="line"/>
      <point x="559" y="0" type="line"/>
    </contour>
  </outline>
</glyph>
<glyph name="J" format="2">
  <advance width="894"/>
  <unicode hex="004A"/>
  <outline>
    <contour>
      <point x="191" y="1500" type="line"/>
      <point x="842" y="1500" type="line"/>
      <point x="842" y="1473" type="line"/>
      <point x="191" y="1473" type="line"/>
    </contour>
    <contour>
      <point x="451" y="1500" type="line"/>
      <point x="642" y="1500" type="line"/>
      <point x="642" y="340" type="line"/>
      <point x="602" y="200"/>
      <point x="522" y="-60"/>
      <point x="285" y="-60" type="curve" smooth="yes"/>
      <point x="131" y="-60"/>
      <point x="50" y="65"/>
      <point x="50" y="165" type="curve" smooth="yes"/>
      <point x="50" y="249"/>
      <point x="103" y="295"/>
      <point x="163" y="295" type="curve" smooth="yes"/>
      <point x="213" y="295"/>
      <point x="275" y="259"/>
      <point x="275" y="177" type="curve" smooth="yes"/>
      <point x="275" y="105"/>
      <point x="219" y="69"/>
      <point x="160" y="69" type="curve" smooth="yes"/>
      <point x="126" y="69"/>
      <point x="105" y="78"/>
      <point x="97" y="81" type="curve"/>
      <point x="118" y="42"/>
      <point x="171" y="-33"/>
      <point x="281" y="-33" type="curve" smooth="yes"/>
      <point x="436" y="-33"/>
      <point x="451" y="100"/>
      <point x="451" y="380" type="curve" smooth="yes"/>
    </contour>
  </outline>
</glyph>
<glyph name="K" format="2">
  <advance width="2850"/>
  <unicode hex="004B"/>
  <outline>
    <contour>
      <point x="109" y="56" type="line"/>
      <point x="1277" y="56" type="line"/>
      <point x="1277" y="0" type="line"/>
      <point x="109" y="0" type="line"/>
    </contour>
    <contour>
      <point x="109" y="3072" type="line"/>
      <point x="1277" y="3072" type="line"/>
      <point x="1277" y="3016" type="line"/>
      <point x="109" y="3016" type="line"/>
    </contour>
    <contour>
      <point x="478" y="3072" type="line"/>
      <point x="867" y="3072" type="line"/>
      <point x="867" y="0" type="line"/>
      <point x="478" y="0" type="line"/>
    </contour>
    <contour>
      <point x="586" y="889" type="line"/>
      <point x="507" y="889" type="line"/>
      <point x="2121" y="3064" type="line"/>
      <point x="2200" y="3064" type="line"/>
    </contour>
    <contour>
      <point x="1523" y="56" type="line"/>
      <point x="2792" y="56" type="line"/>
      <point x="2792" y="0" type="line"/>
      <point x="1523" y="0" type="line"/>
    </contour>
    <contour>
      <point x="2607" y="3016" type="line"/>
      <point x="1625" y="3016" type="line"/>
      <point x="1625" y="3072" type="line"/>
      <point x="2607" y="3072" type="line"/>
    </contour>
    <contour>
      <point x="2473" y="0" type="line"/>
      <point x="1981" y="0" type="line"/>
      <point x="1069" y="1616" type="line"/>
      <point x="1320" y="1937" type="line"/>
    </contour>
  </outline>
</glyph>
<glyph name="L" format="2">
  <advance width="1182"/>
  <unicode hex="004C"/>
  <outline>
    <contour>
      <point x="233" y="1500" type="line"/>
      <point x="423" y="1500" type="line"/>
      <point x="423" y="0" type="line"/>
      <point x="233" y="0" type="line"/>
    </contour>
    <contour>
      <point x="53" y="1500" type="line"/>
      <point x="603" y="1500" type="line"/>
      <point x="603" y="1473" type="line"/>
      <point x="53" y="1473" type="line"/>
    </contour>
    <contour>
      <point x="1125" y="0" type="line"/>
      <point x="53" y="0" type="line"/>
      <point x="53" y="27" type="line"/>
      <point x="733" y="27" type="line" smooth="yes"/>
      <point x="1047" y="27"/>
      <point x="1097" y="196"/>
      <point x="1097" y="450" type="curve"/>
      <point x="1125" y="450" type="line"/>
    </contour>
  </outline>
</glyph>
<glyph name="M" format="2">
  <advance width="1712"/>
  <unicode hex="004D"/>
  <outline>
    <contour>
      <point x="1661" y="1500" type="line"/>
      <point x="1661" y="1473" type="line"/>
      <point x="1521" y="1473" type="line"/>
      <point x="1521" y="0" type="line"/>
      <point x="1331" y="0" type="line"/>
      <point x="1331" y="1500" type="line"/>
    </contour>
    <contour>
      <point x="63" y="27" type="line"/>
      <point x="385" y="27" type="line"/>
      <point x="385" y="0" type="line"/>
      <point x="63" y="0" type="line"/>
    </contour>
    <contour>
      <point x="1170" y="27" type="line"/>
      <point x="1661" y="27" type="line"/>
      <point x="1661" y="0" type="line"/>
      <point x="1170" y="0" type="line"/>
    </contour>
    <contour>
      <point x="874" y="252" type="line"/>
      <point x="1310" y="1500" type="line"/>
      <point x="1338" y="1500" type="line"/>
      <point x="810" y="-20" type="line"/>
      <point x="776" y="-20" type="line"/>
      <point x="221" y="1500" type="line"/>
      <point x="413" y="1500" type="line"/>
    </contour>
    <contour>
      <point x="206" y="1473" type="line"/>
      <point x="53" y="1473" type="line"/>
      <point x="53" y="1500" type="line"/>
      <point x="234" y="1500" type="line"/>
      <point x="234" y="0" type="line"/>
      <point x="206" y="0" type="line"/>
    </contour>
  </outline>
</glyph>
<glyph name="N" format="2">
  <advance width="1518"/>
  <unicode hex="004E"/>
  <outline>
    <contour>
      <point x="1227" y="1500" type="line"/>
      <point x="1255" y="1500" type="line"/>
      <point x="1255" y="-20" type="line"/>
      <point x="1218" y="-20" type="line"/>
      <point x="265" y="1500" type="line"/>
      <point x="495" y="1500" type="line"/>
      <point x="1227" y="307" type="line"/>
    </contour>
    <contour>
      <point x="994" y="1500" type="line"/>
      <point x="1465" y="1500" type="line"/>
      <point x="1465" y="1473" type="line"/>
      <point x="994" y="1473" type="line"/>
    </contour>
    <contour>
      <point x="53" y="27" type="line"/>
      <point x="522" y="27" type="line"/>
      <point x="522" y="0" type="line"/>
      <point x="53" y="0" type="line"/>
    </contour>
    <contour>
      <point x="255" y="1473" type="line"/>
      <point x="53" y="1473" type="line"/>
      <point x="53" y="1500" type="line"/>
      <point x="284" y="1500" type="line"/>
      <point x="284" y="0" type="line"/>
      <point x="255" y="0" type="line"/>
    </contour>
  </outline>
</glyph>
<glyph name="P" format="2">
  <advance width="1260"/>
  <unicode hex="0050"/>
  <outline>
    <contour>
      <point x="233" y="1500" type="line"/>
      <point x="423" y="1500" type="line"/>
      <point x="423" y="0" type="line"/>
      <point x="233" y="0" type="line"/>
    </contour>
    <contour>
      <point x="53" y="27" type="line"/>
      <point x="603" y="27" type="line"/>
      <point x="603" y="0" type="line"/>
      <point x="53" y="0" type="line"/>
    </contour>
    <contour>
      <point x="643" y="658" type="curve" smooth="yes"/>
      <point x="383" y="658" type="line"/>
      <point x="383" y="685" type="line"/>
      <point x="643" y="685" type="line" smooth="yes"/>
      <point x="835" y="685"/>
      <point x="943" y="895"/>
      <point x="943" y="1073" type="curve" smooth="yes"/>
      <point x="943" y="1251"/>
      <point x="835" y="1473"/>
      <point x="643" y="1473" type="curve" smooth="yes"/>
      <point x="53" y="1473" type="line"/>
      <point x="53" y="1500" type="line"/>
      <point x="643" y="1500" type="line" smooth="yes"/>
      <point x="1005" y="1500"/>
      <point x="1164" y="1333"/>
      <point x="1164" y="1073" type="curve" smooth="yes"/>
      <point x="1164" y="813"/>
      <point x="1005" y="658"/>
    </contour>
  </outline>
</glyph>
<glyph name="Q" format="2">
  <advance width="1481"/>
  <unicode hex="0051"/>
  <outline>
    <contour>
      <point x="741" y="-20" type="curve" smooth="yes"/>
      <point x="335" y="-20"/>
      <point x="101" y="324"/>
      <point x="101" y="750" type="curve" smooth="yes"/>
      <point x="101" y="1176"/>
      <point x="355" y="1520"/>
      <point x="741" y="1520" type="curve" smooth="yes"/>
      <point x="1127" y="1520"/>
      <point x="1381" y="1176"/>
      <point x="1381" y="750" type="curve" smooth="yes"/>
      <point x="1381" y="324"/>
      <point x="1147" y="-20"/>
    </contour>
    <contour>
      <point x="741" y="1495" type="curve" smooth="yes"/>
      <point x="413" y="1495"/>
      <point x="331" y="1114"/>
      <point x="331" y="750" type="curve" smooth="yes"/>
      <point x="331" y="386"/>
      <point x="393" y="5"/>
      <point x="741" y="5" type="curve" smooth="yes"/>
      <point x="1089" y="5"/>
      <point x="1151" y="386"/>
      <point x="1151" y="750" type="curve" smooth="yes"/>
      <point x="1151" y="1114"/>
      <point x="1069" y="1495"/>
    </contour>
    <contour>
      <point x="1081" y="-473" type="curve"/>
      <point x="1081" y="-500" type="line"/>
      <point x="655" y="-500"/>
      <point x="621" y="-348"/>
      <point x="621" y="-2" type="curve"/>
      <point x="700" y="-15"/>
      <point x="772" y="-15"/>
      <point x="851" y="-2" type="curve"/>
      <point x="851" y="-366"/>
      <point x="880" y="-473"/>
    </contour>
  </outline>
</glyph>
<glyph name="R" format="2">
  <advance width="1424"/>
  <unicode hex="0052"/>
  <outline>
    <contour>
      <point x="713" y="758" type="curve" smooth="yes"/>
      <point x="414" y="758" type="line"/>
      <point x="414" y="775" type="line"/>
      <point x="713" y="775" type="line" smooth="yes"/>
      <point x="905" y="775"/>
      <point x="1013" y="904"/>
      <point x="1013" y="1122" type="curve" smooth="yes"/>
      <point x="1013" y="1340"/>
      <point x="905" y="1473"/>
      <point x="713" y="1473" type="curve" smooth="yes"/>
      <point x="53" y="1473" type="line"/>
      <point x="53" y="1500" type="line"/>
      <point x="713" y="1500" type="line" smooth="yes"/>
      <point x="1015" y="1500"/>
      <point x="1213" y="1382"/>
      <point x="1213" y="1122" type="curve" smooth="yes"/>
      <point x="1213" y="862"/>
      <point x="1035" y="758"/>
    </contour>
    <contour>
      <point x="53" y="27" type="line"/>
      <point x="683" y="27" type="line"/>
      <point x="683" y="0" type="line"/>
      <point x="53" y="0" type="line"/>
    </contour>
    <contour>
      <point x="273" y="1500" type="line"/>
      <point x="463" y="1500" type="line"/>
      <point x="463" y="0" type="line"/>
      <point x="273" y="0" type="line"/>
    </contour>
    <contour>
      <point x="1383" y="22" type="line"/>
      <point x="1351" y="4"/>
      <point x="1287" y="-10"/>
      <point x="1204" y="-10" type="curve" smooth="yes"/>
      <point x="738" y="-10"/>
      <point x="1196" y="748"/>
      <point x="704" y="748" type="curve" smooth="yes"/>
      <point x="414" y="748" type="line"/>
      <point x="414" y="764" type="line"/>
      <point x="744" y="764" type="line" smooth="yes"/>
      <point x="1417" y="764"/>
      <point x="1032" y="23"/>
      <point x="1270" y="23" type="curve" smooth="yes"/>
      <point x="1312" y="23"/>
      <point x="1346" y="33"/>
      <point x="1374" y="46" type="curve"/>
    </contour>
  </outline>
</glyph>
<glyph name="S" format="2">
  <advance width="1140"/>
  <unicode hex="0053"/>
  <outline>
    <contour>
      <point x="996" y="1110" type="curve"/>
      <point x="969" y="1110" type="line"/>
      <point x="929" y="1370"/>
      <point x="768" y="1488"/>
      <point x="569" y="1488" type="curve" smooth="yes"/>
      <point x="377" y="1488"/>
      <point x="277" y="1389"/>
      <point x="277" y="1237" type="curve" smooth="yes"/>
      <point x="277" y="867"/>
      <point x="1065" y="953"/>
      <point x="1065" y="400" type="curve" smooth="yes"/>
      <point x="1065" y="140"/>
      <point x="887" y="-30"/>
      <point x="605" y="-30" type="curve" smooth="yes"/>
      <point x="298" y="-30"/>
      <point x="152" y="150"/>
      <point x="104" y="390" type="curve"/>
      <point x="131" y="390" type="line"/>
      <point x="175" y="165"/>
      <point x="314" y="0"/>
      <point x="588" y="0" type="curve" smooth="yes"/>
      <point x="800" y="0"/>
      <point x="937" y="111"/>
      <point x="937" y="316" type="curve" smooth="yes"/>
      <point x="937" y="726"/>
      <point x="136" y="630"/>
      <point x="136" y="1150" type="curve" smooth="yes"/>
      <point x="136" y="1370"/>
      <point x="323" y="1520"/>
      <point x="550" y="1520" type="curve" smooth="yes"/>
      <point x="786" y="1520"/>
      <point x="956" y="1387"/>
    </contour>
    <contour>
      <point x="973" y="1520" type="line"/>
      <point x="996" y="1520" type="line"/>
      <point x="996" y="1110" type="line"/>
      <point x="970" y="1203"/>
      <point x="932" y="1300"/>
      <point x="869" y="1384" type="curve"/>
    </contour>
    <contour>
      <point x="128" y="-20" type="line"/>
      <point x="104" y="-20" type="line"/>
      <point x="104" y="390" type="line"/>
      <point x="144" y="277"/>
      <point x="176" y="205"/>
      <point x="229" y="128" type="curve"/>
    </contour>
  </outline>
</glyph>
<glyph name="T" format="2">
  <advance width="1318"/>
  <unicode hex="0054"/>
  <outline>
    <contour>
      <point x="345" y="27" type="line"/>
      <point x="975" y="27" type="line"/>
      <point x="975" y="0" type="line"/>
      <point x="345" y="0" type="line"/>
    </contour>
    <contour>
      <point x="564" y="1493" type="line"/>
      <point x="755" y="1493" type="line"/>
      <point x="755" y="0" type="line"/>
      <point x="564" y="0" type="line"/>
    </contour>
    <contour>
      <point x="955" y="1473" type="curve" smooth="yes"/>
      <point x="364" y="1473" type="line" smooth="yes"/>
      <point x="130" y="1473"/>
      <point x="81" y="1304"/>
      <point x="81" y="1050" type="curve"/>
      <point x="53" y="1050" type="line"/>
      <point x="53" y="1500" type="line"/>
      <point x="1266" y="1500" type="line"/>
      <point x="1266" y="1050" type="line"/>
      <point x="1238" y="1050" type="line"/>
      <point x="1238" y="1304"/>
      <point x="1189" y="1473"/>
    </contour>
  </outline>
</glyph>
<glyph name="U" format="2">
  <advance width="2932"/>
  <unicode hex="0055"/>
  <outline>
    <contour>
      <point x="1989" y="3072" type="line"/>
      <point x="2816" y="3072" type="line"/>
      <point x="2816" y="3016" type="line"/>
      <point x="1989" y="3016" type="line"/>
    </contour>
    <contour>
      <point x="100" y="3072" type="line"/>
      <point x="1268" y="3072" type="line"/>
      <point x="1268" y="3016" type="line"/>
      <point x="100" y="3016" type="line"/>
    </contour>
    <contour>
      <point x="2367" y="3072" type="line"/>
      <point x="2422" y="3072" type="line"/>
      <point x="2422" y="942" type="line" smooth="yes"/>
      <point x="2422" y="266"/>
      <point x="2140" y="-61"/>
      <point x="1493" y="-61" type="curve" smooth="yes"/>
      <point x="784" y="-61"/>
      <point x="469" y="233"/>
      <point x="469" y="942" type="curve" smooth="yes"/>
      <point x="469" y="3072" type="line"/>
      <point x="858" y="3072" type="line"/>
      <point x="858" y="983" type="line" smooth="yes"/>
      <point x="858" y="442"/>
      <point x="984" y="10"/>
      <point x="1574" y="10" type="curve" smooth="yes"/>
      <point x="2095" y="10"/>
      <point x="2367" y="292"/>
      <point x="2367" y="942" type="curve" smooth="yes"/>
    </contour>
  </outline>
</glyph>
<glyph name="V" format="2">
  <advance width="1521"/>
  <unicode hex="0056"/>
  <outline>
    <contour>
      <point x="1469" y="1473" type="line"/>
      <point x="1014" y="1473" type="line"/>
      <point x="1014" y="1500" type="line"/>
      <point x="1469" y="1500" type="line"/>
    </contour>
    <contour>
      <point x="633" y="1473" type="line"/>
      <point x="53" y="1473" type="line"/>
      <point x="53" y="1500" type="line"/>
      <point x="633" y="1500" type="line"/>
    </contour>
    <contour>
      <point x="823" y="237" type="line"/>
      <point x="1273" y="1500" type="line"/>
      <point x="1305" y="1500" type="line"/>
      <point x="755" y="-30" type="line"/>
      <point x="724" y="-30" type="line"/>
      <point x="193" y="1500" type="line"/>
      <point x="413" y="1500" type="line"/>
    </contour>
  </outline>
</glyph>
<glyph name="W" format="2">
  <advance width="1984"/>
  <unicode hex="0057"/>
  <outline>
    <contour>
      <point x="1069" y="947" type="line"/>
      <point x="717" y="-20" type="line"/>
      <point x="687" y="-20" type="line"/>
      <point x="215" y="1500" type="line"/>
      <point x="416" y="1500" type="line"/>
      <point x="795" y="281" type="line"/>
      <point x="1054" y="991" type="line"/>
    </contour>
    <contour>
      <point x="1109" y="947" type="line"/>
      <point x="1086" y="969" type="line"/>
      <point x="1263" y="1500" type="line"/>
      <point x="1294" y="1497" type="line"/>
    </contour>
    <contour>
      <point x="1947" y="1473" type="line"/>
      <point x="1553" y="1473" type="line"/>
      <point x="1553" y="1500" type="line"/>
      <point x="1947" y="1500" type="line"/>
    </contour>
    <contour>
      <point x="953" y="1500" type="line"/>
      <point x="1330" y="281" type="line"/>
      <point x="1761" y="1500" type="line"/>
      <point x="1791" y="1497" type="line"/>
      <point x="1255" y="-20" type="line"/>
      <point x="1225" y="-20" type="line"/>
      <point x="753" y="1500" type="line"/>
    </contour>
    <contour>
      <point x="1453" y="1473" type="line"/>
      <point x="38" y="1473" type="line"/>
      <point x="38" y="1500" type="line"/>
      <point x="1453" y="1500" type="line"/>
    </contour>
  </outline>
</glyph>
<glyph name="X" format="2">
  <advance width="1507"/>
  <unicode hex="0058"/>
  <outline>
    <contour>
      <point x="764" y="754" type="line"/>
      <point x="728" y="754" type="line"/>
      <point x="1172" y="1496" type="line"/>
      <point x="1204" y="1496" type="line"/>
    </contour>
    <contour>
      <point x="257" y="0" type="line"/>
      <point x="223" y="0" type="line"/>
      <point x="752" y="834" type="line"/>
      <point x="785" y="834" type="line"/>
    </contour>
    <contour>
      <point x="897" y="27" type="line"/>
      <point x="1466" y="27" type="line"/>
      <point x="1466" y="0" type="line"/>
      <point x="897" y="0" type="line"/>
    </contour>
    <contour>
      <point x="35" y="27" type="line"/>
      <point x="509" y="27" type="line"/>
      <point x="509" y="0" type="line"/>
      <point x="35" y="0" type="line"/>
    </contour>
    <contour>
      <point x="665" y="1473" type="line"/>
      <point x="104" y="1473" type="line"/>
      <point x="104" y="1500" type="line"/>
      <point x="665" y="1500" type="line"/>
    </contour>
    <contour>
      <point x="1355" y="1473" type="line"/>
      <point x="920" y="1473" type="line"/>
      <point x="920" y="1500" type="line"/>
      <point x="1355" y="1500" type="line"/>
    </contour>
    <contour>
      <point x="1337" y="0" type="line"/>
      <point x="1098" y="0" type="line"/>
      <point x="224" y="1500" type="line"/>
      <point x="457" y="1500" type="line"/>
    </contour>
  </outline>
</glyph>
<glyph name="Y" format="2">
  <advance width="1446"/>
  <unicode hex="0059"/>
  <outline>
    <contour>
      <point x="1405" y="1473" type="line"/>
      <point x="993" y="1473" type="line"/>
      <point x="993" y="1500" type="line"/>
      <point x="1405" y="1500" type="line"/>
    </contour>
    <contour>
      <point x="615" y="1473" type="line"/>
      <point x="35" y="1473" type="line"/>
      <point x="35" y="1500" type="line"/>
      <point x="615" y="1500" type="line"/>
    </contour>
    <contour>
      <point x="464" y="27" type="line"/>
      <point x="1035" y="27" type="line"/>
      <point x="1035" y="0" type="line"/>
      <point x="464" y="0" type="line"/>
    </contour>
    <contour>
      <point x="818" y="790" type="line"/>
      <point x="1227" y="1496" type="line"/>
      <point x="1259" y="1496" type="line"/>
      <point x="834" y="766" type="line"/>
      <point x="834" y="0" type="line"/>
      <point x="644" y="0" type="line"/>
      <point x="644" y="720" type="line"/>
      <point x="167" y="1500" type="line"/>
      <point x="388" y="1500" type="line"/>
    </contour>
  </outline>
</glyph>
<glyph name="Z" format="2">
  <advance width="1134"/>
  <unicode hex="005A"/>
  <outline>
    <contour>
      <point x="85" y="1500" type="line"/>
      <point x="1041" y="1500" type="line"/>
      <point x="1041" y="1473" type="line"/>
      <point x="251" y="27" type="line"/>
      <point x="686" y="27" type="line" smooth="yes"/>
      <point x="960" y="27"/>
      <point x="1029" y="126"/>
      <point x="1029" y="380" type="curve"/>
      <point x="1056" y="380" type="line"/>
      <point x="1056" y="0" type="line"/>
      <point x="41" y="0" type="line"/>
      <point x="41" y="27" type="line"/>
      <point x="831" y="1473" type="line"/>
      <point x="457" y="1473" type="line" smooth="yes"/>
      <point x="183" y="1473"/>
      <point x="113" y="1374"/>
      <point x="113" y="1160" type="curve"/>
      <point x="85" y="1160" type="line"/>
    </contour>
  </outline>
</glyph>
<glyph name="backslash" format="2">
  <advance width="1049"/>
  <unicode hex="005C"/>
  <outline>
    <contour>
      <point x="110" y="1560" type="line"/>
      <point x="971" y="-300" type="line"/>
      <point x="941" y="-300" type="line"/>
      <point x="80" y="1560" type="line"/>
    </contour>
  </outline>
</glyph>
<glyph name="grave" format="2">
  <advance width="789"/>
  <unicode hex="0060"/>
  <outline>
    <contour>
      <point x="180" y="1441" type="line" smooth="yes"/>
      <point x="142" y="1441"/>
      <point x="110" y="1472"/>
      <point x="110" y="1510" type="curve" smooth="yes"/>
      <point x="110" y="1548"/>
      <point x="144" y="1590"/>
      <point x="200" y="1576" type="curve" smooth="yes"/>
      <point x="676" y="1453" type="line"/>
      <point x="668" y="1429" type="line"/>
    </contour>
  </outline>
</glyph>
<glyph name="a" format="2">
  <advance width="1075"/>
  <unicode hex="0061"/>
  <outline>
    <contour>
      <point x="1049" y="99" type="line"/>
      <point x="1007" y="24"/>
      <point x="933" y="-20"/>
      <point x="850" y="-20" type="curve" smooth="yes"/>
      <point x="756" y="-20"/>
      <point x="672" y="20"/>
      <point x="672" y="151" type="curve" smooth="yes"/>
      <point x="672" y="610" type="line" smooth="yes"/>
      <point x="672" y="747"/>
      <point x="653" y="905"/>
      <point x="493" y="905" type="curve" smooth="yes"/>
      <point x="390" y="905"/>
      <point x="295" y="866"/>
      <point x="253" y="827" type="curve"/>
      <point x="341" y="848"/>
      <point x="393" y="794"/>
      <point x="393" y="736" type="curve" smooth="yes"/>
      <point x="393" y="656"/>
      <point x="327" y="622"/>
      <point x="276" y="622" type="curve" smooth="yes"/>
      <point x="216" y="622"/>
      <point x="171" y="660"/>
      <point x="171" y="732" type="curve" smooth="yes"/>
      <point x="171" y="856"/>
      <point x="348" y="936"/>
      <point x="530" y="936" type="curve" smooth="yes"/>
      <point x="822" y="936"/>
      <point x="849" y="772"/>
      <point x="849" y="610" type="curve" smooth="yes"/>
      <point x="849" y="102" type="line" smooth="yes"/>
      <point x="849" y="56"/>
      <point x="867" y="27"/>
      <point x="913" y="27" type="curve" smooth="yes"/>
      <point x="944" y="27"/>
      <point x="995" y="57"/>
      <point x="1028" y="114" type="curve"/>
    </contour>
    <contour>
      <point x="542" y="513" type="curve" smooth="yes"/>
      <point x="773" y="513" type="line"/>
      <point x="773" y="485" type="line"/>
      <point x="542" y="485" type="line" smooth="yes"/>
      <point x="382" y="485"/>
      <point x="300" y="369"/>
      <point x="300" y="237" type="curve" smooth="yes"/>
      <point x="300" y="115"/>
      <point x="350" y="30"/>
      <point x="445" y="30" type="curve" smooth="yes"/>
      <point x="560" y="30"/>
      <point x="672" y="131"/>
      <point x="672" y="366" type="curve"/>
      <point x="695" y="366" type="line"/>
      <point x="695" y="124"/>
      <point x="590" y="-20"/>
      <point x="375" y="-20" type="curve" smooth="yes"/>
      <point x="212" y="-20"/>
      <point x="101" y="76"/>
      <point x="101" y="226" type="curve" smooth="yes"/>
      <point x="101" y="397"/>
      <point x="245" y="513"/>
    </contour>
  </outline>
</glyph>
<glyph name="c" format="2">
  <advance width="1018"/>
  <unicode hex="0063"/>
  <outline>
    <contour>
      <point x="854" y="756" type="curve"/>
      <point x="823" y="849"/>
      <point x="714" y="911"/>
      <point x="586" y="911" type="curve" smooth="yes"/>
      <point x="353" y="911"/>
      <point x="311" y="648"/>
      <point x="311" y="460" type="curve" smooth="yes"/>
      <point x="311" y="232"/>
      <point x="361" y="14"/>
      <point x="570" y="14" type="curve" smooth="yes"/>
      <point x="739" y="14"/>
      <point x="834" y="122"/>
      <point x="888" y="270" type="curve"/>
      <point x="916" y="270" type="line"/>
      <point x="864" y="104"/>
      <point x="759" y="-20"/>
      <point x="557" y="-20" type="curve" smooth="yes"/>
      <point x="295" y="-20"/>
      <point x="101" y="160"/>
      <point x="101" y="460" type="curve" smooth="yes"/>
      <point x="101" y="720"/>
      <point x="264" y="940"/>
      <point x="566" y="940" type="curve" smooth="yes"/>
      <point x="770" y="940"/>
      <point x="898" y="824"/>
      <point x="898" y="695" type="curve" smooth="yes"/>
      <point x="898" y="616"/>
      <point x="846" y="574"/>
      <point x="786" y="574" type="curve" smooth="yes"/>
      <point x="736" y="574"/>
      <point x="672" y="606"/>
      <point x="672" y="686" type="curve" smooth="yes"/>
      <point x="672" y="751"/>
      <point x="722" y="788"/>
      <point x="773" y="788" type="curve" smooth="yes"/>
      <point x="810" y="788"/>
      <point x="844" y="771"/>
    </contour>
  </outline>
</glyph>
<glyph name="d" format="2">
  <advance width="1208"/>
  <unicode hex="0064"/>
  <outline>
    <contour>
      <point x="859" y="459" type="curve" smooth="yes"/>
      <point x="859" y="178"/>
      <point x="730" y="-19"/>
      <point x="521" y="-19" type="curve" smooth="yes"/>
      <point x="308" y="-19"/>
      <point x="101" y="159"/>
      <point x="101" y="459" type="curve" smooth="yes"/>
      <point x="101" y="759"/>
      <point x="308" y="939"/>
      <point x="521" y="939" type="curve" smooth="yes"/>
      <point x="730" y="939"/>
      <point x="859" y="740"/>
    </contour>
    <contour>
      <point x="833" y="459" type="curve" smooth="yes"/>
      <point x="833" y="742"/>
      <point x="701" y="898"/>
      <point x="550" y="898" type="curve" smooth="yes"/>
      <point x="390" y="898"/>
      <point x="307" y="727"/>
      <point x="307" y="459" type="curve" smooth="yes"/>
      <point x="307" y="191"/>
      <point x="390" y="22"/>
      <point x="550" y="22" type="curve" smooth="yes"/>
      <point x="701" y="22"/>
      <point x="833" y="176"/>
    </contour>
    <contour>
      <point x="1140" y="27" type="line"/>
      <point x="1140" y="0" type="line"/>
      <point x="833" y="0" type="line"/>
      <point x="833" y="1473" type="line"/>
      <point x="706" y="1473" type="line"/>
      <point x="706" y="1500" type="line"/>
      <point x="1013" y="1500" type="line"/>
      <point x="1013" y="27" type="line"/>
    </contour>
  </outline>
</glyph>
<glyph name="e" format="2">
  <advance width="2150"/>
  <unicode hex="0065"/>
  <outline>
    <contour>
      <point x="480" y="1074" type="line"/>
      <point x="480" y="1131" type="line"/>
      <point x="1511" y="1131" type="line"/>
      <point x="1512" y="1420"/>
      <point x="1474" y="1869"/>
      <point x="1123" y="1869" type="curve" smooth="yes"/>
      <point x="727" y="1869"/>
      <point x="629" y="1409"/>
      <point x="629" y="942" type="curve" smooth="yes"/>
      <point x="629" y="475"/>
      <point x="735" y="21"/>
      <point x="1168" y="21" type="curve" smooth="yes"/>
      <point x="1555" y="21"/>
      <point x="1802" y="250"/>
      <point x="1904" y="553" type="curve"/>
      <point x="1966" y="553" type="line"/>
      <point x="1860" y="214"/>
      <point x="1590" y="-41"/>
      <point x="1143" y="-41" type="curve" smooth="yes"/>
      <point x="617" y="-41"/>
      <point x="206" y="328"/>
      <point x="206" y="942" type="curve" smooth="yes"/>
      <point x="206" y="1556"/>
      <point x="594" y="1925"/>
      <point x="1123" y="1925" type="curve" smooth="yes"/>
      <point x="1723" y="1925"/>
      <point x="1945" y="1520"/>
      <point x="1945" y="1074" type="curve"/>
    </contour>
  </outline>
</glyph>
<glyph name="f" format="2">
  <advance width="772"/>
  <unicode hex="0066"/>
  <outline>
    <contour>
      <point x="61" y="27" type="line"/>
      <point x="633" y="27" type="line"/>
      <point x="633" y="0" type="line"/>
      <point x="61" y="0" type="line"/>
    </contour>
    <contour>
      <point x="61" y="920" type="line"/>
      <point x="673" y="920" type="line"/>
      <point x="673" y="893" type="line"/>
      <point x="61" y="893" type="line"/>
    </contour>
    <contour>
      <point x="828" y="1376" type="curve"/>
      <point x="806" y="1430"/>
      <point x="740" y="1493"/>
      <point x="621" y="1493" type="curve" smooth="yes"/>
      <point x="461" y="1493"/>
      <point x="407" y="1334"/>
      <point x="407" y="1080" type="curve" smooth="yes"/>
      <point x="407" y="0" type="line"/>
      <point x="227" y="0" type="line"/>
      <point x="227" y="1024" type="line" smooth="yes"/>
      <point x="227" y="1286"/>
      <point x="361" y="1520"/>
      <point x="621" y="1520" type="curve" smooth="yes"/>
      <point x="783" y="1520"/>
      <point x="867" y="1416"/>
      <point x="867" y="1322" type="curve" smooth="yes"/>
      <point x="867" y="1240"/>
      <point x="812" y="1198"/>
      <point x="752" y="1198" type="curve" smooth="yes"/>
      <point x="702" y="1198"/>
      <point x="640" y="1230"/>
      <point x="640" y="1308" type="curve" smooth="yes"/>
      <point x="640" y="1382"/>
      <point x="695" y="1416"/>
      <point x="747" y="1416" type="curve" smooth="yes"/>
      <point x="782" y="1416"/>
      <point x="809" y="1402"/>
    </contour>
  </outline>
</glyph>
<glyph name="g" format="2">
  <advance width="1180"/>
  <unicode hex="0067"/>
  <outline>
    <contour>
      <point x="134" y="148" type="curve" smooth="yes"/>
      <point x="134" y="296"/>
      <point x="330" y="354"/>
      <point x="494" y="354" type="curve"/>
      <point x="493" y="334" type="line"/>
      <point x="407" y="334"/>
      <point x="272" y="294"/>
      <point x="272" y="212" type="curve" smooth="yes"/>
      <point x="272" y="139"/>
      <point x="354" y="138"/>
      <point x="464" y="138" type="curve" smooth="yes"/>
      <point x="534" y="138"/>
      <point x="570" y="140"/>
      <point x="626" y="140" type="curve" smooth="yes"/>
      <point x="776" y="140"/>
      <point x="953" y="108"/>
      <point x="953" y="-164" type="curve" smooth="yes"/>
      <point x="953" y="-414"/>
      <point x="733" y="-520"/>
      <point x="508" y="-520" type="curve" smooth="yes"/>
      <point x="274" y="-520"/>
      <point x="70" y="-440"/>
      <point x="70" y="-250" type="curve" smooth="yes"/>
      <point x="70" y="-68"/>
      <point x="264" y="-10"/>
      <point x="354" y="-10" type="curve" smooth="yes"/>
      <point x="372" y="-10" type="line"/>
      <point x="282" y="-55"/>
      <point x="254" y="-135"/>
      <point x="254" y="-212" type="curve" smooth="yes"/>
      <point x="254" y="-344"/>
      <point x="338" y="-489"/>
      <point x="534" y="-489" type="curve" smooth="yes"/>
      <point x="733" y="-489"/>
      <point x="898" y="-386"/>
      <point x="898" y="-207" type="curve" smooth="yes"/>
      <point x="898" y="-72"/>
      <point x="770" y="-18"/>
      <point x="640" y="-18" type="curve" smooth="yes"/>
      <point x="598" y="-18"/>
      <point x="477" y="-18"/>
      <point x="433" y="-18" type="curve" smooth="yes"/>
      <point x="253" y="-18"/>
      <point x="134" y="24"/>
    </contour>
    <contour>
      <point x="307" y="630" type="curve" smooth="yes"/>
      <point x="307" y="482"/>
      <point x="321" y="356"/>
      <point x="479" y="356" type="curve" smooth="yes"/>
      <point x="597" y="356"/>
      <point x="649" y="482"/>
      <point x="649" y="630" type="curve" smooth="yes"/>
      <point x="649" y="778"/>
      <point x="597" y="913"/>
      <point x="479" y="913" type="curve" smooth="yes"/>
      <point x="361" y="913"/>
      <point x="307" y="778"/>
    </contour>
    <contour>
      <point x="120" y="630" type="curve" smooth="yes"/>
      <point x="120" y="850"/>
      <point x="317" y="940"/>
      <point x="479" y="940" type="curve" smooth="yes"/>
      <point x="641" y="940"/>
      <point x="833" y="850"/>
      <point x="833" y="630" type="curve" smooth="yes"/>
      <point x="833" y="410"/>
      <point x="641" y="329"/>
      <point x="479" y="329" type="curve" smooth="yes"/>
      <point x="317" y="329"/>
      <point x="120" y="410"/>
    </contour>
    <contour>
      <point x="1087" y="819" type="curve"/>
      <point x="1076" y="865"/>
      <point x="1031" y="903"/>
      <point x="958" y="903" type="curve" smooth="yes"/>
      <point x="880" y="903"/>
      <point x="767" y="855"/>
      <point x="727" y="686" type="curve"/>
      <point x="703" y="699" type="line"/>
      <point x="743" y="876"/>
      <point x="878" y="930"/>
      <point x="958" y="930" type="curve" smooth="yes"/>
      <point x="1058" y="930"/>
      <point x="1123" y="861"/>
      <point x="1123" y="785" type="curve" smooth="yes"/>
      <point x="1123" y="697"/>
      <point x="1069" y="668"/>
      <point x="1019" y="668" type="curve" smooth="yes"/>
      <point x="969" y="668"/>
      <point x="918" y="702"/>
      <point x="918" y="768" type="curve" smooth="yes"/>
      <point x="918" y="820"/>
      <point x="963" y="856"/>
      <point x="1010" y="856" type="curve" smooth="yes"/>
      <point x="1044" y="856"/>
      <point x="1075" y="842"/>
    </contour>
  </outline>
</glyph>
<glyph name="h" format="2">
  <advance width="1180"/>
  <unicode hex="0068"/>
  <outline>
    <contour>
      <point x="806" y="611" type="line" smooth="yes"/>
      <point x="806" y="779"/>
      <point x="785" y="906"/>
      <point x="675" y="906" type="curve" smooth="yes"/>
      <point x="459" y="906"/>
      <point x="376" y="616"/>
      <point x="376" y="448" type="curve"/>
      <point x="356" y="444" type="line"/>
      <point x="356" y="626"/>
      <point x="421" y="940"/>
      <point x="703" y="940" type="curve" smooth="yes"/>
      <point x="934" y="940"/>
      <point x="984" y="812"/>
      <point x="984" y="638" type="curve" smooth="yes"/>
      <point x="984" y="0" type="line"/>
      <point x="806" y="0" type="line"/>
    </contour>
    <contour>
      <point x="681" y="27" type="line"/>
      <point x="1111" y="27" type="line"/>
      <point x="1111" y="0" type="line"/>
      <point x="681" y="0" type="line"/>
    </contour>
    <contour>
      <point x="70" y="27" type="line"/>
      <point x="503" y="27" type="line"/>
      <point x="503" y="0" type="line"/>
      <point x="70" y="0" type="line"/>
    </contour>
    <contour>
      <point x="197" y="1473" type="line"/>
      <point x="70" y="1473" type="line"/>
      <point x="70" y="1500" type="line"/>
      <point x="376" y="1500" type="line"/>
      <point x="376" y="0" type="line"/>
      <point x="197" y="0" type="line"/>
    </contour>
  </outline>
</glyph>
<glyph name="i" format="2">
  <advance width="592"/>
  <unicode hex="0069"/>
  <outline>
    <contour>
      <point x="80" y="27" type="line"/>
      <point x="513" y="27" type="line"/>
      <point x="513" y="0" type="line"/>
      <point x="80" y="0" type="line"/>
    </contour>
    <contour>
      <point x="157" y="1400" type="curve" smooth="yes"/>
      <point x="157" y="1466"/>
      <point x="211" y="1520"/>
      <point x="277" y="1520" type="curve" smooth="yes"/>
      <point x="343" y="1520"/>
      <point x="397" y="1466"/>
      <point x="397" y="1400" type="curve" smooth="yes"/>
      <point x="397" y="1334"/>
      <point x="343" y="1280"/>
      <point x="277" y="1280" type="curve" smooth="yes"/>
      <point x="211" y="1280"/>
      <point x="157" y="1334"/>
    </contour>
    <contour>
      <point x="207" y="893" type="line"/>
      <point x="80" y="893" type="line"/>
      <point x="80" y="920" type="line"/>
      <point x="386" y="920" type="line"/>
      <point x="386" y="0" type="line"/>
      <point x="207" y="0" type="line"/>
    </contour>
  </outline>
</glyph>
<glyph name="j" format="2">
  <advance width="600"/>
  <unicode hex="006A"/>
  <outline>
    <contour>
      <point x="191" y="1400" type="curve" smooth="yes"/>
      <point x="191" y="1466"/>
      <point x="245" y="1520"/>
      <point x="311" y="1520" type="curve" smooth="yes"/>
      <point x="377" y="1520"/>
      <point x="430" y="1466"/>
      <point x="430" y="1400" type="curve" smooth="yes"/>
      <point x="430" y="1334"/>
      <point x="377" y="1280"/>
      <point x="311" y="1280" type="curve" smooth="yes"/>
      <point x="245" y="1280"/>
      <point x="191" y="1334"/>
    </contour>
    <contour>
      <point x="417" y="920" type="line"/>
      <point x="417" y="-24" type="line" smooth="yes"/>
      <point x="417" y="-286"/>
      <point x="363" y="-520"/>
      <point x="103" y="-520" type="curve" smooth="yes"/>
      <point x="-59" y="-520"/>
      <point x="-143" y="-416"/>
      <point x="-143" y="-302" type="curve" smooth="yes"/>
      <point x="-143" y="-220"/>
      <point x="-90" y="-178"/>
      <point x="-30" y="-178" type="curve" smooth="yes"/>
      <point x="20" y="-178"/>
      <point x="83" y="-206"/>
      <point x="83" y="-286" type="curve" smooth="yes"/>
      <point x="83" y="-356"/>
      <point x="36" y="-397"/>
      <point x="-32" y="-397" type="curve" smooth="yes"/>
      <point x="-57" y="-397"/>
      <point x="-96" y="-379"/>
      <point x="-108" y="-359" type="curve"/>
      <point x="-93" y="-422"/>
      <point x="-20" y="-493"/>
      <point x="92" y="-493" type="curve" smooth="yes"/>
      <point x="272" y="-493"/>
      <point x="237" y="-214"/>
      <point x="237" y="40" type="curve" smooth="yes"/>
      <point x="237" y="893" type="line"/>
      <point x="70" y="893" type="line"/>
      <point x="70" y="920" type="line"/>
    </contour>
  </outline>
</glyph>
<glyph name="k" format="2">
  <advance width="1198"/>
  <unicode hex="006B"/>
  <outline>
    <contour>
      <point x="1073" y="0" type="line"/>
      <point x="852" y="0" type="line"/>
      <point x="404" y="525" type="line"/>
      <point x="905" y="920" type="line"/>
      <point x="942" y="920" type="line"/>
      <point x="554" y="610" type="line"/>
    </contour>
    <contour>
      <point x="688" y="27" type="line"/>
      <point x="1149" y="27" type="line"/>
      <point x="1149" y="0" type="line"/>
      <point x="688" y="0" type="line"/>
    </contour>
    <contour>
      <point x="1081" y="893" type="line"/>
      <point x="661" y="893" type="line"/>
      <point x="661" y="920" type="line"/>
      <point x="1081" y="920" type="line"/>
    </contour>
    <contour>
      <point x="70" y="27" type="line"/>
      <point x="556" y="27" type="line"/>
      <point x="556" y="0" type="line"/>
      <point x="70" y="0" type="line"/>
    </contour>
    <contour>
      <point x="237" y="1473" type="line"/>
      <point x="70" y="1473" type="line"/>
      <point x="70" y="1500" type="line"/>
      <point x="417" y="1500" type="line"/>
      <point x="417" y="0" type="line"/>
      <point x="237" y="0" type="line"/>
    </contour>
  </outline>
</glyph>
<glyph name="l" format="2">
  <advance width="652"/>
  <unicode hex="006C"/>
  <outline>
    <contour>
      <point x="70" y="27" type="line"/>
      <point x="583" y="27" type="line"/>
      <point x="583" y="0" type="line"/>
      <point x="70" y="0" type="line"/>
    </contour>
    <contour>
      <point x="237" y="1473" type="line"/>
      <point x="70" y="1473" type="line"/>
      <point x="70" y="1500" type="line"/>
      <point x="417" y="1500" type="line"/>
      <point x="417" y="0" type="line"/>
      <point x="237" y="0" type="line"/>
    </contour>
  </outline>
</glyph>
<glyph name="m" format="2">
  <advance width="3502"/>
  <unicode hex="006D"/>
  <outline>
    <contour>
      <point x="1933" y="1307" type="curve" smooth="yes"/>
      <point x="1933" y="0" type="line"/>
      <point x="1571" y="0" type="line"/>
      <point x="1571" y="1262" type="line" smooth="yes"/>
      <point x="1571" y="1606"/>
      <point x="1558" y="1853"/>
      <point x="1338" y="1853" type="curve" smooth="yes"/>
      <point x="935" y="1853"/>
      <point x="765" y="1267"/>
      <point x="765" y="927" type="curve"/>
      <point x="723" y="919" type="line"/>
      <point x="723" y="1291"/>
      <point x="855" y="1925"/>
      <point x="1401" y="1925" type="curve" smooth="yes"/>
      <point x="1817" y="1925"/>
      <point x="1933" y="1663"/>
    </contour>
    <contour>
      <point x="144" y="56" type="line"/>
      <point x="1025" y="56" type="line"/>
      <point x="1025" y="0" type="line"/>
      <point x="144" y="0" type="line"/>
    </contour>
    <contour>
      <point x="1312" y="56" type="line"/>
      <point x="2193" y="56" type="line"/>
      <point x="2193" y="0" type="line"/>
      <point x="1312" y="0" type="line"/>
    </contour>
    <contour>
      <point x="2478" y="56" type="line"/>
      <point x="3359" y="56" type="line"/>
      <point x="3359" y="0" type="line"/>
      <point x="2478" y="0" type="line"/>
    </contour>
    <contour>
      <point x="403" y="1828" type="line"/>
      <point x="144" y="1828" type="line"/>
      <point x="144" y="1884" type="line"/>
      <point x="765" y="1884" type="line"/>
      <point x="765" y="0" type="line"/>
      <point x="403" y="0" type="line"/>
    </contour>
    <contour>
      <point x="3100" y="1307" type="curve" smooth="yes"/>
      <point x="3100" y="0" type="line"/>
      <point x="2737" y="0" type="line"/>
      <point x="2737" y="1262" type="line" smooth="yes"/>
      <point x="2737" y="1606"/>
      <point x="2712" y="1853"/>
      <point x="2492" y="1853" type="curve" smooth="yes"/>
      <point x="2082" y="1853"/>
      <point x="1933" y="1267"/>
      <point x="1933" y="927" type="curve"/>
      <point x="1887" y="919" type="line"/>
      <point x="1887" y="1291"/>
      <point x="2002" y="1925"/>
      <point x="2555" y="1925" type="curve" smooth="yes"/>
      <point x="2971" y="1925"/>
      <point x="3100" y="1663"/>
    </contour>
  </outline>
</glyph>
<glyph name="o" format="2">
  <advance width="2285"/>
  <unicode hex="006F"/>
  <outline>
    <contour>
      <point x="629" y="942" type="curve" smooth="yes"/>
      <point x="629" y="557"/>
      <point x="701" y="15"/>
      <point x="1144" y="15" type="curve" smooth="yes"/>
      <point x="1587" y="15"/>
      <point x="1658" y="557"/>
      <point x="1658" y="942" type="curve" smooth="yes"/>
      <point x="1658" y="1327"/>
      <point x="1587" y="1869"/>
      <point x="1144" y="1869" type="curve" smooth="yes"/>
      <point x="701" y="1869"/>
      <point x="629" y="1327"/>
    </contour>
    <contour>
      <point x="206" y="942" type="curve" smooth="yes"/>
      <point x="206" y="1474"/>
      <point x="566" y="1925"/>
      <point x="1144" y="1925" type="curve" smooth="yes"/>
      <point x="1722" y="1925"/>
      <point x="2082" y="1474"/>
      <point x="2082" y="942" type="curve" smooth="yes"/>
      <point x="2082" y="410"/>
      <point x="1722" y="-41"/>
      <point x="1144" y="-41" type="curve" smooth="yes"/>
      <point x="566" y="-41"/>
      <point x="206" y="410"/>
    </contour>
  </outline>
</glyph>
<glyph name="p" format="2">
  <advance width="2476"/>
  <unicode hex="0070"/>
  <outline>
    <contour>
      <point x="716" y="942" type="curve" smooth="yes"/>
      <point x="716" y="1518"/>
      <point x="983" y="1921"/>
      <point x="1411" y="1921" type="curve" smooth="yes"/>
      <point x="1847" y="1921"/>
      <point x="2273" y="1556"/>
      <point x="2273" y="942" type="curve" smooth="yes"/>
      <point x="2273" y="328"/>
      <point x="1847" y="-41"/>
      <point x="1411" y="-41" type="curve" smooth="yes"/>
      <point x="983" y="-41"/>
      <point x="716" y="366"/>
    </contour>
    <contour>
      <point x="771" y="942" type="curve" smooth="yes"/>
      <point x="771" y="362"/>
      <point x="1043" y="42"/>
      <point x="1353" y="42" type="curve" smooth="yes"/>
      <point x="1680" y="42"/>
      <point x="1849" y="393"/>
      <point x="1849" y="942" type="curve" smooth="yes"/>
      <point x="1849" y="1491"/>
      <point x="1680" y="1838"/>
      <point x="1353" y="1838" type="curve" smooth="yes"/>
      <point x="1043" y="1838"/>
      <point x="771" y="1522"/>
    </contour>
    <contour>
      <point x="144" y="-968" type="line"/>
      <point x="1031" y="-968" type="line"/>
      <point x="1031" y="-1024" type="line"/>
      <point x="144" y="-1024" type="line"/>
    </contour>
    <contour>
      <point x="403" y="1828" type="line"/>
      <point x="144" y="1828" type="line"/>
      <point x="144" y="1884" type="line"/>
      <point x="771" y="1884" type="line"/>
      <point x="771" y="-1024" type="line"/>
      <point x="403" y="-1024" type="line"/>
    </contour>
  </outline>
</glyph>
<glyph name="q" format="2">
  <advance width="1208"/>
  <unicode hex="0071"/>
  <outline>
    <contour>
      <point x="859" y="459" type="curve" smooth="yes"/>
      <point x="859" y="178"/>
      <point x="730" y="-19"/>
      <point x="521" y="-19" type="curve" smooth="yes"/>
      <point x="308" y="-19"/>
      <point x="101" y="159"/>
      <point x="101" y="459" type="curve" smooth="yes"/>
      <point x="101" y="759"/>
      <point x="308" y="939"/>
      <point x="521" y="939" type="curve" smooth="yes"/>
      <point x="730" y="939"/>
      <point x="859" y="740"/>
    </contour>
    <contour>
      <point x="833" y="459" type="curve" smooth="yes"/>
      <point x="833" y="742"/>
      <point x="701" y="898"/>
      <point x="550" y="898" type="curve" smooth="yes"/>
      <point x="390" y="898"/>
      <point x="307" y="727"/>
      <point x="307" y="459" type="curve" smooth="yes"/>
      <point x="307" y="191"/>
      <point x="390" y="22"/>
      <point x="550" y="22" type="curve" smooth="yes"/>
      <point x="701" y="22"/>
      <point x="833" y="176"/>
    </contour>
    <contour>
      <point x="1140" y="-473" type="line"/>
      <point x="1140" y="-500" type="line"/>
      <point x="706" y="-500" type="line"/>
      <point x="706" y="-473" type="line"/>
    </contour>
    <contour>
      <point x="1140" y="920" type="line"/>
      <point x="1140" y="893" type="line"/>
      <point x="1013" y="893" type="line"/>
      <point x="1013" y="-500" type="line"/>
      <point x="833" y="-500" type="line"/>
      <point x="833" y="920" type="line"/>
    </contour>
  </outline>
</glyph>
<glyph name="r" format="2">
  <advance width="871"/>
  <unicode hex="0072"/>
  <outline>
    <contour>
      <point x="764" y="857" type="curve"/>
      <point x="740" y="891"/>
      <point x="692" y="913"/>
      <point x="642" y="913" type="curve" smooth="yes"/>
      <point x="456" y="913"/>
      <point x="374" y="654"/>
      <point x="374" y="435" type="curve"/>
      <point x="351" y="435" type="line"/>
      <point x="351" y="671"/>
      <point x="428" y="940"/>
      <point x="642" y="940" type="curve" smooth="yes"/>
      <point x="740" y="940"/>
      <point x="819" y="874"/>
      <point x="819" y="786" type="curve" smooth="yes"/>
      <point x="819" y="718"/>
      <point x="778" y="664"/>
      <point x="705" y="664" type="curve" smooth="yes"/>
      <point x="639" y="664"/>
      <point x="588" y="702"/>
      <point x="588" y="771" type="curve" smooth="yes"/>
      <point x="588" y="856"/>
      <point x="690" y="904"/>
    </contour>
    <contour>
      <point x="70" y="27" type="line"/>
      <point x="508" y="27" type="line"/>
      <point x="508" y="0" type="line"/>
      <point x="70" y="0" type="line"/>
    </contour>
    <contour>
      <point x="197" y="893" type="line"/>
      <point x="70" y="893" type="line"/>
      <point x="70" y="920" type="line"/>
      <point x="374" y="920" type="line"/>
      <point x="374" y="0" type="line"/>
      <point x="197" y="0" type="line"/>
    </contour>
  </outline>
</glyph>
<glyph name="s" format="2">
  <advance width="1806"/>
  <unicode hex="0073"/>
  <outline>
    <contour>
      <point x="1408" y="1555" type="curve"/>
      <point x="1372" y="1618"/>
      <point x="1325" y="1675"/>
      <point x="1268" y="1728" type="curve"/>
      <point x="1450" y="1925" type="line"/>
      <point x="1500" y="1925" type="line"/>
      <point x="1500" y="1352" type="line"/>
      <point x="1449" y="1352" type="line"/>
      <point x="1447" y="1421"/>
      <point x="1436" y="1484"/>
    </contour>
    <contour>
      <point x="1492" y="1352" type="curve"/>
      <point x="1444" y="1352" type="line"/>
      <point x="1430" y="1602"/>
      <point x="1176" y="1862"/>
      <point x="821" y="1862" type="curve" smooth="yes"/>
      <point x="610" y="1862"/>
      <point x="442" y="1755"/>
      <point x="442" y="1571" type="curve" smooth="yes"/>
      <point x="442" y="1106"/>
      <point x="1612" y="1271"/>
      <point x="1612" y="572" type="curve" smooth="yes"/>
      <point x="1612" y="207"/>
      <point x="1317" y="-41"/>
      <point x="929" y="-41" type="curve" smooth="yes"/>
      <point x="553" y="-41"/>
      <point x="226" y="230"/>
      <point x="206" y="549" type="curve"/>
      <point x="255" y="549" type="line"/>
      <point x="288" y="258"/>
      <point x="580" y="20"/>
      <point x="901" y="20" type="curve" smooth="yes"/>
      <point x="1137" y="20"/>
      <point x="1368" y="123"/>
      <point x="1368" y="380" type="curve" smooth="yes"/>
      <point x="1368" y="897"/>
      <point x="254" y="650"/>
      <point x="254" y="1382" type="curve" smooth="yes"/>
      <point x="254" y="1644"/>
      <point x="428" y="1921"/>
      <point x="817" y="1921" type="curve" smooth="yes"/>
      <point x="1209" y="1921"/>
      <point x="1492" y="1622"/>
    </contour>
    <contour>
      <point x="247" y="-41" type="line"/>
      <point x="199" y="-41" type="line"/>
      <point x="199" y="549" type="line"/>
      <point x="252" y="549" type="line"/>
      <point x="250" y="458"/>
      <point x="270" y="383"/>
      <point x="301" y="333" type="curve"/>
      <point x="363" y="252"/>
      <point x="392" y="207"/>
      <point x="436" y="161" type="curve"/>
    </contour>
  </outline>
</glyph>
<glyph name="t" format="2">
  <advance width="673"/>
  <unicode hex="0074"/>
  <outline>
    <contour>
      <point x="50" y="920" type="line"/>
      <point x="582" y="920" type="line"/>
      <point x="582" y="893" type="line"/>
      <point x="50" y="893" type="line"/>
    </contour>
    <contour>
      <point x="641" y="180" type="line"/>
      <point x="590" y="65"/>
      <point x="503" y="-14"/>
      <point x="378" y="-14" type="curve" smooth="yes"/>
      <point x="214" y="-14"/>
      <point x="188" y="112"/>
      <point x="188" y="222" type="curve" smooth="yes"/>
      <point x="188" y="1120" type="line"/>
      <point x="248" y="1120"/>
      <point x="328" y="1150"/>
      <point x="368" y="1180" type="curve"/>
      <point x="368" y="165" type="line" smooth="yes"/>
      <point x="368" y="65"/>
      <point x="390" y="39"/>
      <point x="446" y="39" type="curve" smooth="yes"/>
      <point x="514" y="39"/>
      <point x="581" y="113"/>
      <point x="618" y="193" type="curve"/>
    </contour>
  </outline>
</glyph>
<glyph name="u" format="2">
  <advance width="2423"/>
  <unicode hex="0075"/>
  <outline>
    <contour>
      <point x="771" y="1884" type="line"/>
      <point x="771" y="632" type="line" smooth="yes"/>
      <point x="771" y="288"/>
      <point x="809" y="28"/>
      <point x="1035" y="28" type="curve" smooth="yes"/>
      <point x="1477" y="28"/>
      <point x="1651" y="623"/>
      <point x="1651" y="967" type="curve"/>
      <point x="1692" y="975" type="line"/>
      <point x="1692" y="603"/>
      <point x="1557" y="-41"/>
      <point x="979" y="-41" type="curve" smooth="yes"/>
      <point x="506" y="-41"/>
      <point x="403" y="222"/>
      <point x="403" y="578" type="curve" smooth="yes"/>
      <point x="403" y="1828" type="line"/>
      <point x="144" y="1828" type="line"/>
      <point x="144" y="1884" type="line"/>
    </contour>
    <contour>
      <point x="2021" y="56" type="line"/>
      <point x="2281" y="56" type="line"/>
      <point x="2281" y="0" type="line"/>
      <point x="1651" y="0" type="line"/>
      <point x="1651" y="1828" type="line"/>
      <point x="1365" y="1828" type="line"/>
      <point x="1365" y="1884" type="line"/>
      <point x="2021" y="1884" type="line"/>
    </contour>
  </outline>
</glyph>
<glyph name="v" format="2">
  <advance width="1091"/>
  <unicode hex="0076"/>
  <outline>
    <contour>
      <point x="1049" y="893" type="line"/>
      <point x="704" y="893" type="line"/>
      <point x="704" y="920" type="line"/>
      <point x="1049" y="920" type="line"/>
    </contour>
    <contour>
      <point x="510" y="893" type="line"/>
      <point x="30" y="893" type="line"/>
      <point x="30" y="920" type="line"/>
      <point x="510" y="920" type="line"/>
    </contour>
    <contour>
      <point x="606" y="205" type="line"/>
      <point x="898" y="920" type="line"/>
      <point x="931" y="920" type="line"/>
      <point x="546" y="-20" type="line"/>
      <point x="517" y="-20" type="line"/>
      <point x="131" y="920" type="line"/>
      <point x="330" y="920" type="line"/>
    </contour>
  </outline>
</glyph>
<glyph name="w" format="2">
  <advance width="3129"/>
  <unicode hex="0077"/>
  <outline>
    <contour>
      <point x="972" y="1829" type="line"/>
      <point x="62" y="1829" type="line"/>
      <point x="62" y="1884" type="line"/>
      <point x="972" y="1884" type="line"/>
    </contour>
    <contour>
      <point x="3042" y="1829" type="line"/>
      <point x="2280" y="1829" type="line"/>
      <point x="2280" y="1884" type="line"/>
      <point x="3042" y="1884" type="line"/>
    </contour>
    <contour>
      <point x="1087" y="448" type="line"/>
      <point x="1709" y="1925" type="line"/>
      <point x="1771" y="1925" type="line"/>
      <point x="2217" y="516" type="line"/>
      <point x="2675" y="1884" type="line"/>
      <point x="2739" y="1884" type="line"/>
      <point x="2095" y="-41" type="line"/>
      <point x="2040" y="-41" type="line"/>
      <point x="1547" y="1388" type="line"/>
      <point x="943" y="-41" type="line"/>
      <point x="884" y="-41" type="line"/>
      <point x="275" y="1884" type="line"/>
      <point x="639" y="1884" type="line"/>
    </contour>
  </outline>
</glyph>
<glyph name="x" format="2">
  <advance width="1141"/>
  <unicode hex="0078"/>
  <outline>
    <contour>
      <point x="670" y="27" type="line"/>
      <point x="1091" y="27" type="line"/>
      <point x="1091" y="0" type="line"/>
      <point x="670" y="0" type="line"/>
    </contour>
    <contour>
      <point x="50" y="27" type="line"/>
      <point x="409" y="27" type="line"/>
      <point x="409" y="0" type="line"/>
      <point x="50" y="0" type="line"/>
    </contour>
    <contour>
      <point x="536" y="893" type="line"/>
      <point x="70" y="893" type="line"/>
      <point x="70" y="920" type="line"/>
      <point x="536" y="920" type="line"/>
    </contour>
    <contour>
      <point x="1061" y="893" type="line"/>
      <point x="714" y="893" type="line"/>
      <point x="714" y="920" type="line"/>
      <point x="1061" y="920" type="line"/>
    </contour>
    <contour>
      <point x="1014" y="0" type="line"/>
      <point x="798" y="0" type="line"/>
      <point x="167" y="920" type="line"/>
      <point x="383" y="920" type="line"/>
    </contour>
    <contour>
      <point x="193" y="0" type="line"/>
      <point x="159" y="0" type="line"/>
      <point x="899" y="920" type="line"/>
      <point x="933" y="920" type="line"/>
    </contour>
  </outline>
</glyph>
<glyph name="y" format="2">
  <advance width="2246"/>
  <unicode hex="0079"/>
  <outline>
    <contour>
      <point x="976" y="1829" type="line"/>
      <point x="62" y="1829" type="line"/>
      <point x="62" y="1884" type="line"/>
      <point x="976" y="1884" type="line"/>
    </contour>
    <contour>
      <point x="2227" y="1829" type="line"/>
      <point x="1583" y="1829" type="line"/>
      <point x="1583" y="1884" type="line"/>
      <point x="2227" y="1884" type="line"/>
    </contour>
    <contour>
      <point x="1359" y="380" type="line"/>
      <point x="1161" y="-81" type="line"/>
      <point x="222" y="1884" type="line"/>
      <point x="632" y="1884" type="line"/>
    </contour>
    <contour>
      <point x="807" y="-828" type="curve"/>
      <point x="1939" y="1884" type="line"/>
      <point x="2006" y="1884" type="line"/>
      <point x="882" y="-811" type="line" smooth="yes"/>
      <point x="810" y="-980"/>
      <point x="741" y="-1081"/>
      <point x="585" y="-1081" type="curve" smooth="yes"/>
      <point x="483" y="-1081"/>
      <point x="356" y="-1016"/>
      <point x="356" y="-860" type="curve" smooth="yes"/>
      <point x="356" y="-725"/>
      <point x="450" y="-631"/>
      <point x="581" y="-631" type="curve" smooth="yes"/>
      <point x="691" y="-631"/>
      <point x="784" y="-709"/>
    </contour>
  </outline>
</glyph>
<glyph name="z" format="2">
  <advance width="932"/>
  <unicode hex="007A"/>
  <outline>
    <contour>
      <point x="423" y="893" type="line" smooth="yes"/>
      <point x="195" y="893"/>
      <point x="143" y="778"/>
      <point x="143" y="576" type="curve"/>
      <point x="116" y="576" type="line"/>
      <point x="116" y="920" type="line"/>
      <point x="830" y="920" type="line"/>
      <point x="830" y="893" type="line"/>
      <point x="271" y="27" type="line"/>
      <point x="509" y="27" type="line" smooth="yes"/>
      <point x="783" y="27"/>
      <point x="835" y="120"/>
      <point x="835" y="368" type="curve"/>
      <point x="862" y="368" type="line"/>
      <point x="862" y="0" type="line"/>
      <point x="61" y="0" type="line"/>
      <point x="61" y="27" type="line"/>
      <point x="617" y="893" type="line"/>
    </contour>
  </outline>
</glyph>
<glyph name="braceleft" format="2">
  <advance width="543"/>
  <unicode hex="007B"/>
  <outline>
    <contour>
      <point x="484" y="1560" type="curve"/>
      <point x="484" y="1533" type="line"/>
      <point x="360" y="1533"/>
      <point x="296" y="1420"/>
      <point x="296" y="1294" type="curve" smooth="yes"/>
      <point x="296" y="1142"/>
      <point x="364" y="1062"/>
      <point x="364" y="862" type="curve" smooth="yes"/>
      <point x="364" y="696"/>
      <point x="258" y="666"/>
      <point x="110" y="626" type="curve"/>
      <point x="110" y="645" type="line"/>
      <point x="170" y="665"/>
      <point x="230" y="710"/>
      <point x="230" y="792" type="curve" smooth="yes"/>
      <point x="230" y="918"/>
      <point x="110" y="1008"/>
      <point x="110" y="1282" type="curve" smooth="yes"/>
      <point x="110" y="1460"/>
      <point x="194" y="1560"/>
    </contour>
    <contour>
      <point x="484" y="-300" type="line"/>
      <point x="194" y="-300"/>
      <point x="110" y="-198"/>
      <point x="110" y="-20" type="curve" smooth="yes"/>
      <point x="110" y="254"/>
      <point x="230" y="344"/>
      <point x="230" y="470" type="curve" smooth="yes"/>
      <point x="230" y="552"/>
      <point x="170" y="596"/>
      <point x="110" y="616" type="curve"/>
      <point x="110" y="635" type="line"/>
      <point x="258" y="595"/>
      <point x="364" y="566"/>
      <point x="364" y="400" type="curve" smooth="yes"/>
      <point x="364" y="200"/>
      <point x="296" y="120"/>
      <point x="296" y="-32" type="curve" smooth="yes"/>
      <point x="296" y="-158"/>
      <point x="360" y="-272"/>
      <point x="484" y="-272" type="curve"/>
    </contour>
  </outline>
</glyph>
<glyph name="section" format="2">
  <advance width="893"/>
  <unicode hex="00A7"/>
  <outline>
    <contour>
      <point x="211" y="1292" type="curve" smooth="yes"/>
      <point x="211" y="1060"/>
      <point x="834" y="1076"/>
      <point x="834" y="770" type="curve" smooth="yes"/>
      <point x="834" y="646"/>
      <point x="720" y="581"/>
      <point x="612" y="509" type="curve"/>
      <point x="595" y="521" type="line"/>
      <point x="651" y="565"/>
      <point x="686" y="605"/>
      <point x="686" y="665" type="curve" smooth="yes"/>
      <point x="686" y="927"/>
      <point x="124" y="852"/>
      <point x="124" y="1216" type="curve" smooth="yes"/>
      <point x="124" y="1424"/>
      <point x="304" y="1520"/>
      <point x="454" y="1520" type="curve" smooth="yes"/>
      <point x="630" y="1520"/>
      <point x="802" y="1436"/>
      <point x="802" y="1224" type="curve" smooth="yes"/>
      <point x="802" y="1142"/>
      <point x="752" y="1080"/>
      <point x="682" y="1080" type="curve" smooth="yes"/>
      <point x="622" y="1080"/>
      <point x="574" y="1120"/>
      <point x="574" y="1192" type="curve" smooth="yes"/>
      <point x="574" y="1256"/>
      <point x="630" y="1302"/>
      <point x="688" y="1302" type="curve" smooth="yes"/>
      <point x="719" y="1302"/>
      <point x="755" y="1282"/>
      <point x="764" y="1268" type="curve"/>
      <point x="753" y="1408"/>
      <point x="621" y="1492"/>
      <point x="454" y="1492" type="curve" smooth="yes"/>
      <point x="323" y="1492"/>
      <point x="211" y="1409"/>
    </contour>
    <contour>
      <point x="818" y="324" type="curve" smooth="yes"/>
      <point x="818" y="116"/>
      <point x="658" y="-20"/>
      <point x="428" y="-20" type="curve" smooth="yes"/>
      <point x="252" y="-20"/>
      <point x="60" y="50"/>
      <point x="60" y="282" type="curve" smooth="yes"/>
      <point x="60" y="364"/>
      <point x="110" y="426"/>
      <point x="180" y="426" type="curve" smooth="yes"/>
      <point x="240" y="426"/>
      <point x="288" y="386"/>
      <point x="288" y="314" type="curve" smooth="yes"/>
      <point x="288" y="250"/>
      <point x="232" y="204"/>
      <point x="174" y="204" type="curve" smooth="yes"/>
      <point x="143" y="204"/>
      <point x="107" y="224"/>
      <point x="98" y="238" type="curve"/>
      <point x="116" y="75"/>
      <point x="274" y="8"/>
      <point x="428" y="8" type="curve" smooth="yes"/>
      <point x="634" y="8"/>
      <point x="702" y="128"/>
      <point x="702" y="222" type="curve" smooth="yes"/>
      <point x="702" y="454"/>
      <point x="76" y="424"/>
      <point x="76" y="710" type="curve" smooth="yes"/>
      <point x="76" y="854"/>
      <point x="194" y="948"/>
      <point x="262" y="1000" type="curve"/>
      <point x="292" y="1000" type="line"/>
      <point x="272" y="976"/>
      <point x="238" y="926"/>
      <point x="238" y="846" type="curve" smooth="yes"/>
      <point x="238" y="584"/>
      <point x="818" y="688"/>
    </contour>
  </outline>
</glyph>
<glyph name="degree" format="2">
  <advance width="1310"/>
  <unicode hex="00B0"/>
  <outline>
    <contour>
      <point x="164" y="2785" type="curve" smooth="yes"/>
      <point x="164" y="3055"/>
      <point x="385" y="3277"/>
      <point x="655" y="3277" type="curve" smooth="yes"/>
      <point x="925" y="3277"/>
      <point x="1147" y="3055"/>
      <point x="1147" y="2785" type="curve" smooth="yes"/>
      <point x="1147" y="2515"/>
      <point x="925" y="2294"/>
      <point x="655" y="2294" type="curve" smooth="yes"/>
      <point x="385" y="2294"/>
      <point x="164" y="2515"/>
    </contour>
    <contour>
      <point x="294" y="2785" type="curve" smooth="yes"/>
      <point x="294" y="2578"/>
      <point x="448" y="2424"/>
      <point x="655" y="2424" type="curve" smooth="yes"/>
      <point x="862" y="2424"/>
      <point x="1016" y="2578"/>
      <point x="1016" y="2785" type="curve" smooth="yes"/>
      <point x="1016" y="2992"/>
      <point x="862" y="3146"/>
      <point x="655" y="3146" type="curve" smooth="yes"/>
      <point x="448" y="3146"/>
      <point x="294" y="2992"/>
    </contour>
  </outline>
</glyph>
<glyph name="acute" format="2">
  <advance width="789"/>
  <unicode hex="00B4"/>
  <outline>
    <contour>
      <point x="610" y="1441" type="curve" smooth="yes"/>
      <point x="122" y="1429" type="line"/>
      <point x="114" y="1453" type="line"/>
      <point x="590" y="1576" type="line" smooth="yes"/>
      <point x="646" y="1590"/>
      <point x="680" y="1548"/>
      <point x="680" y="1510" type="curve" smooth="yes"/>
      <point x="680" y="1472"/>
      <point x="648" y="1441"/>
    </contour>
  </outline>
</glyph>
<glyph name="mu" format="2">
  <advance width="1183"/>
  <unicode hex="00B5"/>
  <outline>
    <contour>
      <point x="538" y="-246" type="curve" smooth="yes"/>
      <point x="604" y="-246"/>
      <point x="656" y="-304"/>
      <point x="656" y="-380" type="curve" smooth="yes"/>
      <point x="656" y="-458"/>
      <point x="614" y="-520"/>
      <point x="468" y="-520" type="curve" smooth="yes"/>
      <point x="328" y="-520"/>
      <point x="208" y="-422"/>
      <point x="208" y="-242" type="curve" smooth="yes"/>
      <point x="208" y="642" type="line"/>
      <point x="235" y="642" type="line"/>
      <point x="235" y="-242" type="line" smooth="yes"/>
      <point x="235" y="-406"/>
      <point x="344" y="-505"/>
      <point x="500" y="-493" type="curve"/>
      <point x="500" y="-504" type="line"/>
      <point x="450" y="-478"/>
      <point x="418" y="-428"/>
      <point x="418" y="-365" type="curve" smooth="yes"/>
      <point x="418" y="-299"/>
      <point x="472" y="-246"/>
    </contour>
    <component base="u"/>
  </outline>
</glyph>
<glyph name="cedilla" format="2">
  <advance width="1099"/>
  <unicode hex="00B8"/>
  <outline>
    <contour>
      <point x="658" y="-275" type="curve" smooth="yes"/>
      <point x="658" y="-177"/>
      <point x="564" y="-158"/>
      <point x="434" y="-158" type="curve"/>
      <point x="614" y="82" type="line"/>
      <point x="648" y="82" type="line"/>
      <point x="528" y="-78" type="line"/>
      <point x="672" y="-84"/>
      <point x="800" y="-128"/>
      <point x="800" y="-240" type="curve" smooth="yes"/>
      <point x="800" y="-340"/>
      <point x="704" y="-416"/>
      <point x="462" y="-416" type="curve"/>
      <point x="462" y="-389" type="line"/>
      <point x="580" y="-389"/>
      <point x="658" y="-340"/>
    </contour>
  </outline>
</glyph>
<glyph name="AE" format="2">
  <advance width="2010"/>
  <unicode hex="00C6"/>
  <outline>
    <contour>
      <point x="1050" y="1500" type="line"/>
      <point x="1077" y="1500" type="line"/>
      <point x="234" y="0" type="line"/>
      <point x="203" y="0" type="line"/>
    </contour>
    <contour>
      <point x="30" y="27" type="line"/>
      <point x="470" y="27" type="line"/>
      <point x="470" y="0" type="line"/>
      <point x="30" y="0" type="line"/>
    </contour>
    <contour>
      <point x="493" y="504" type="line"/>
      <point x="1070" y="504" type="line"/>
      <point x="1070" y="477" type="line"/>
      <point x="493" y="477" type="line"/>
    </contour>
    <contour>
      <point x="1050" y="1500" type="line"/>
      <point x="1240" y="1500" type="line"/>
      <point x="1240" y="0" type="line"/>
      <point x="1050" y="0" type="line"/>
    </contour>
    <contour>
      <point x="1050" y="1500" type="line"/>
      <point x="1931" y="1500" type="line"/>
      <point x="1931" y="1090" type="line"/>
      <point x="1904" y="1090" type="line"/>
      <point x="1904" y="1304"/>
      <point x="1814" y="1473"/>
      <point x="1580" y="1473" type="curve" smooth="yes"/>
      <point x="1050" y="1473" type="line"/>
    </contour>
    <contour>
      <point x="1951" y="0" type="line"/>
      <point x="870" y="0" type="line"/>
      <point x="870" y="27" type="line"/>
      <point x="1560" y="27" type="line" smooth="yes"/>
      <point x="1834" y="27"/>
      <point x="1924" y="196"/>
      <point x="1924" y="450" type="curve"/>
      <point x="1951" y="450" type="line"/>
    </contour>
    <contour>
      <point x="1564" y="556" type="line"/>
      <point x="1564" y="690"/>
      <point x="1474" y="763"/>
      <point x="1360" y="763" type="curve" smooth="yes"/>
      <point x="1240" y="763" type="line"/>
      <point x="1240" y="790" type="line"/>
      <point x="1360" y="790" type="line" smooth="yes"/>
      <point x="1474" y="790"/>
      <point x="1564" y="852"/>
      <point x="1564" y="986" type="curve"/>
      <point x="1591" y="986" type="line"/>
      <point x="1591" y="556" type="line"/>
    </contour>
  </outline>
</glyph>
<glyph name="germandbls" format="2">
  <advance width="1361"/>
  <unicode hex="00DF"/>
  <outline>
    <contour>
      <point x="686" y="806" type="curve"/>
      <point x="686" y="823" type="line"/>
      <point x="944" y="823"/>
      <point x="1020" y="1014"/>
      <point x="1020" y="1142" type="curve" smooth="yes"/>
      <point x="1020" y="1286"/>
      <point x="954" y="1495"/>
      <point x="746" y="1495" type="curve" smooth="yes"/>
      <point x="478" y="1495"/>
      <point x="390" y="1246"/>
      <point x="390" y="962" type="curve" smooth="yes"/>
      <point x="390" y="0" type="line"/>
      <point x="210" y="0" type="line"/>
      <point x="210" y="982" type="line" smooth="yes"/>
      <point x="210" y="1328"/>
      <point x="420" y="1520"/>
      <point x="746" y="1520" type="curve" smooth="yes"/>
      <point x="1032" y="1520"/>
      <point x="1222" y="1348"/>
      <point x="1222" y="1162" type="curve" smooth="yes"/>
      <point x="1222" y="962"/>
      <point x="1088" y="806"/>
    </contour>
    <contour>
      <point x="30" y="27" type="line"/>
      <point x="570" y="27" type="line"/>
      <point x="570" y="0" type="line"/>
      <point x="30" y="0" type="line"/>
    </contour>
    <contour>
      <point x="1282" y="320" type="curve" smooth="yes"/>
      <point x="1282" y="120"/>
      <point x="1104" y="-20"/>
      <point x="902" y="-20" type="curve" smooth="yes"/>
      <point x="760" y="-20"/>
      <point x="646" y="88"/>
      <point x="646" y="272" type="curve" smooth="yes"/>
      <point x="646" y="354"/>
      <point x="700" y="402"/>
      <point x="770" y="402" type="curve" smooth="yes"/>
      <point x="830" y="402"/>
      <point x="878" y="362"/>
      <point x="878" y="290" type="curve" smooth="yes"/>
      <point x="878" y="226"/>
      <point x="822" y="180"/>
      <point x="764" y="180" type="curve" smooth="yes"/>
      <point x="721" y="180"/>
      <point x="689" y="209"/>
      <point x="678" y="237" type="curve"/>
      <point x="685" y="103"/>
      <point x="778" y="10"/>
      <point x="892" y="10" type="curve" smooth="yes"/>
      <point x="1050" y="10"/>
      <point x="1080" y="192"/>
      <point x="1080" y="320" type="curve" smooth="yes"/>
      <point x="1080" y="508"/>
      <point x="1024" y="797"/>
      <point x="686" y="797" type="curve"/>
      <point x="686" y="814" type="line"/>
      <point x="1168" y="814"/>
      <point x="1282" y="580"/>
    </contour>
  </outline>
</glyph>
<glyph name="ae" format="2">
  <advance width="1525"/>
  <unicode hex="00E6"/>
  <outline>
    <contour>
      <point x="140" y="732" type="curve" smooth="yes"/>
      <point x="140" y="856"/>
      <point x="314" y="936"/>
      <point x="496" y="936" type="curve" smooth="yes"/>
      <point x="756" y="936"/>
      <point x="772" y="772"/>
      <point x="772" y="610" type="curve"/>
      <point x="742" y="362" type="line"/>
      <point x="742" y="114"/>
      <point x="622" y="-20"/>
      <point x="400" y="-20" type="curve" smooth="yes"/>
      <point x="242" y="-20"/>
      <point x="70" y="38"/>
      <point x="70" y="226" type="curve" smooth="yes"/>
      <point x="70" y="394"/>
      <point x="224" y="516"/>
      <point x="508" y="516" type="curve" smooth="yes"/>
      <point x="676" y="516" type="line"/>
      <point x="676" y="488" type="line"/>
      <point x="508" y="488" type="line" smooth="yes"/>
      <point x="356" y="488"/>
      <point x="274" y="380"/>
      <point x="274" y="256" type="curve" smooth="yes"/>
      <point x="274" y="122"/>
      <point x="328" y="8"/>
      <point x="438" y="8" type="curve" smooth="yes"/>
      <point x="552" y="8"/>
      <point x="632" y="160"/>
      <point x="632" y="362" type="curve" smooth="yes"/>
      <point x="632" y="610" type="line" smooth="yes"/>
      <point x="632" y="744"/>
      <point x="616" y="900"/>
      <point x="456" y="900" type="curve" smooth="yes"/>
      <point x="354" y="900"/>
      <point x="279" y="866"/>
      <point x="243" y="833" type="curve"/>
      <point x="307" y="842"/>
      <point x="362" y="800"/>
      <point x="362" y="736" type="curve" smooth="yes"/>
      <point x="362" y="656"/>
      <point x="294" y="622"/>
      <point x="244" y="622" type="curve" smooth="yes"/>
      <point x="184" y="622"/>
      <point x="140" y="660"/>
    </contour>
    <contour>
      <point x="1262" y="529" type="line"/>
      <point x="1260" y="679"/>
      <point x="1238" y="912"/>
      <point x="1060" y="912" type="curve" smooth="yes"/>
      <point x="862" y="912"/>
      <point x="810" y="688"/>
      <point x="810" y="460" type="curve" smooth="yes"/>
      <point x="810" y="232"/>
      <point x="872" y="9"/>
      <point x="1090" y="9" type="curve" smooth="yes"/>
      <point x="1273" y="9"/>
      <point x="1398" y="132"/>
      <point x="1448" y="286" type="curve"/>
      <point x="1476" y="286" type="line"/>
      <point x="1424" y="112"/>
      <point x="1288" y="-20"/>
      <point x="1066" y="-20" type="curve" smooth="yes"/>
      <point x="804" y="-20"/>
      <point x="640" y="160"/>
      <point x="640" y="460" type="curve" smooth="yes"/>
      <point x="640" y="760"/>
      <point x="798" y="940"/>
      <point x="1060" y="940" type="curve" smooth="yes"/>
      <point x="1358" y="940"/>
      <point x="1474" y="720"/>
      <point x="1474" y="502" type="curve"/>
      <point x="734" y="502" type="line"/>
      <point x="734" y="529" type="line"/>
    </contour>
  </outline>
</glyph>
<glyph name="eth" format="2">
  <advance width="1119"/>
  <unicode hex="00F0"/>
  <outline>
    <contour>
      <point x="220" y="1260" type="line"/>
      <point x="1060" y="1260" type="line"/>
      <point x="1060" y="1232" type="line"/>
      <point x="220" y="1232" type="line"/>
    </contour>
    <contour>
      <point x="1020" y="620" type="curve" smooth="yes"/>
      <point x="1020" y="200"/>
      <point x="834" y="-20"/>
      <point x="532" y="-20" type="curve" smooth="yes"/>
      <point x="230" y="-20"/>
      <point x="60" y="200"/>
      <point x="60" y="500" type="curve" smooth="yes"/>
      <point x="60" y="840"/>
      <point x="296" y="980"/>
      <point x="498" y="980" type="curve" smooth="yes"/>
      <point x="760" y="980"/>
      <point x="843" y="794"/>
      <point x="843" y="560" type="curve"/>
      <point x="820" y="560" type="line"/>
      <point x="820" y="784"/>
      <point x="735" y="940"/>
      <point x="542" y="940" type="curve" smooth="yes"/>
      <point x="364" y="940"/>
      <point x="260" y="768"/>
      <point x="260" y="500" type="curve" smooth="yes"/>
      <point x="260" y="272"/>
      <point x="308" y="7"/>
      <point x="526" y="7" type="curve" smooth="yes"/>
      <point x="744" y="7"/>
      <point x="820" y="292"/>
      <point x="820" y="560" type="curve"/>
      <point x="817" y="673" type="line"/>
      <point x="817" y="1057"/>
      <point x="558" y="1495"/>
      <point x="210" y="1495" type="curve"/>
      <point x="210" y="1520" type="line"/>
      <point x="654" y="1520"/>
      <point x="1020" y="1111"/>
    </contour>
  </outline>
</glyph>
<glyph name="divide" format="2">
  <advance width="1119"/>
  <unicode hex="00F7"/>
  <outline>
    <contour>
      <point x="100" y="804" type="line"/>
      <point x="1020" y="804" type="line"/>
      <point x="1020" y="776" type="line"/>
      <point x="100" y="776" type="line"/>
    </contour>
    <contour>
      <point x="440" y="420" type="curve" smooth="yes"/>
      <point x="440" y="486"/>
      <point x="494" y="540"/>
      <point x="560" y="540" type="curve" smooth="yes"/>
      <point x="626" y="540"/>
      <point x="680" y="486"/>
      <point x="680" y="420" type="curve" smooth="yes"/>
      <point x="680" y="354"/>
      <point x="626" y="300"/>
      <point x="560" y="300" type="curve" smooth="yes"/>
      <point x="494" y="300"/>
      <point x="440" y="354"/>
    </contour>
    <contour>
      <point x="440" y="1130" type="curve" smooth="yes"/>
      <point x="440" y="1196"/>
      <point x="494" y="1250"/>
      <point x="560" y="1250" type="curve" smooth="yes"/>
      <point x="626" y="1250"/>
      <point x="680" y="1196"/>
      <point x="680" y="1130" type="curve" smooth="yes"/>
      <point x="680" y="1064"/>
      <point x="626" y="1010"/>
      <point x="560" y="1010" type="curve" smooth="yes"/>
      <point x="494" y="1010"/>
      <point x="440" y="1064"/>
    </contour>
  </outline>
</glyph>
<glyph name="thorn" format="2">
  <advance width="2410"/>
  <unicode hex="00FE"/>
  <outline>
    <contour>
      <point x="710" y="942" type="curve" smooth="yes"/>
      <point x="710" y="1518"/>
      <point x="974" y="1921"/>
      <point x="1402" y="1921" type="curve" smooth="yes"/>
      <point x="1838" y="1921"/>
      <point x="2253" y="1556"/>
      <point x="2253" y="942" type="curve" smooth="yes"/>
      <point x="2253" y="328"/>
      <point x="1838" y="-41"/>
      <point x="1402" y="-41" type="curve" smooth="yes"/>
      <point x="974" y="-41"/>
      <point x="710" y="366"/>
    </contour>
    <contour>
      <point x="752" y="942" type="curve" smooth="yes"/>
      <point x="752" y="362"/>
      <point x="1023" y="42"/>
      <point x="1333" y="42" type="curve" smooth="yes"/>
      <point x="1660" y="42"/>
      <point x="1829" y="393"/>
      <point x="1829" y="942" type="curve" smooth="yes"/>
      <point x="1829" y="1491"/>
      <point x="1660" y="1838"/>
      <point x="1333" y="1838" type="curve" smooth="yes"/>
      <point x="1023" y="1838"/>
      <point x="752" y="1522"/>
    </contour>
    <contour>
      <point x="97" y="-968" type="line"/>
      <point x="1039" y="-968" type="line"/>
      <point x="1039" y="-1024" type="line"/>
      <point x="97" y="-1024" type="line"/>
    </contour>
    <contour>
      <point x="383" y="3016" type="line"/>
      <point x="97" y="3016" type="line"/>
      <point x="97" y="3072" type="line"/>
      <point x="752" y="3072" type="line"/>
      <point x="752" y="-1024" type="line"/>
      <point x="383" y="-1024" type="line"/>
    </contour>
  </outline>
</glyph>
<glyph name="dotlessi" format="2">
  <advance width="573"/>
  <unicode hex="0131"/>
  <outline>
    <contour>
      <point x="57" y="27" type="line"/>
      <point x="517" y="27" type="line"/>
      <point x="517" y="0" type="line"/>
      <point x="57" y="0" type="line"/>
    </contour>
    <contour>
      <point x="197" y="893" type="line"/>
      <point x="57" y="893" type="line"/>
      <point x="57" y="920" type="line"/>
      <point x="377" y="920" type="line"/>
      <point x="377" y="0" type="line"/>
      <point x="197" y="0" type="line"/>
    </contour>
  </outline>
</glyph>
<glyph name="kgreenlandic" format="2">
  <advance width="1192"/>
  <unicode hex="0138"/>
  <outline>
    <contour>
      <point x="1077" y="0" type="line"/>
      <point x="855" y="0" type="line"/>
      <point x="407" y="525" type="line"/>
      <point x="909" y="920" type="line"/>
      <point x="946" y="920" type="line"/>
      <point x="558" y="610" type="line"/>
    </contour>
    <contour>
      <point x="679" y="27" type="line"/>
      <point x="1152" y="27" type="line"/>
      <point x="1152" y="0" type="line"/>
      <point x="679" y="0" type="line"/>
    </contour>
    <contour>
      <point x="1085" y="893" type="line"/>
      <point x="639" y="893" type="line"/>
      <point x="639" y="920" type="line"/>
      <point x="1085" y="920" type="line"/>
    </contour>
    <contour>
      <point x="61" y="27" type="line"/>
      <point x="561" y="27" type="line"/>
      <point x="561" y="0" type="line"/>
      <point x="61" y="0" type="line"/>
    </contour>
    <contour>
      <point x="241" y="893" type="line"/>
      <point x="61" y="893" type="line"/>
      <point x="61" y="920" type="line"/>
      <point x="421" y="920" type="line"/>
      <point x="421" y="0" type="line"/>
      <point x="241" y="0" type="line"/>
    </contour>
  </outline>
</glyph>
<glyph name="lslash" format="2">
  <advance width="652"/>
  <unicode hex="0142"/>
  <outline>
    <contour>
      <point x="61" y="800" type="line"/>
      <point x="631" y="1160" type="line"/>
      <point x="631" y="1128" type="line"/>
      <point x="61" y="768" type="line"/>
    </contour>
    <component base="l"/>
  </outline>
</glyph>
<glyph name="OE" format="2">
  <advance width="1925"/>
  <unicode hex="0152"/>
  <outline>
    <contour>
      <point x="787" y="1473" type="move"/>
    </contour>
    <contour>
      <point x="310" y="750" type="curve" smooth="yes"/>
      <point x="310" y="386"/>
      <point x="419" y="27"/>
      <point x="787" y="27" type="curve"/>
      <point x="766" y="0" type="line"/>
      <point x="360" y="0"/>
      <point x="80" y="304"/>
      <point x="80" y="750" type="curve" smooth="yes"/>
      <point x="80" y="1196"/>
      <point x="360" y="1500"/>
      <point x="766" y="1500" type="curve"/>
      <point x="787" y="1473" type="line"/>
      <point x="419" y="1473"/>
      <point x="310" y="1114"/>
    </contour>
    <component base="E" xOffset="711"/>
  </outline>
</glyph>
<glyph name="uni0237" format="2">
  <advance width="597"/>
  <unicode hex="0237"/>
  <outline>
    <contour>
      <point x="419" y="920" type="line"/>
      <point x="419" y="-24" type="line" smooth="yes"/>
      <point x="419" y="-286"/>
      <point x="365" y="-520"/>
      <point x="105" y="-520" type="curve" smooth="yes"/>
      <point x="-57" y="-520"/>
      <point x="-141" y="-416"/>
      <point x="-141" y="-302" type="curve" smooth="yes"/>
      <point x="-141" y="-220"/>
      <point x="-87" y="-178"/>
      <point x="-27" y="-178" type="curve" smooth="yes"/>
      <point x="23" y="-178"/>
      <point x="85" y="-206"/>
      <point x="85" y="-286" type="curve" smooth="yes"/>
      <point x="85" y="-356"/>
      <point x="38" y="-397"/>
      <point x="-30" y="-397" type="curve" smooth="yes"/>
      <point x="-55" y="-397"/>
      <point x="-89" y="-379"/>
      <point x="-101" y="-359" type="curve"/>
      <point x="-91" y="-422"/>
      <point x="-17" y="-493"/>
      <point x="95" y="-493" type="curve" smooth="yes"/>
      <point x="275" y="-493"/>
      <point x="239" y="-214"/>
      <point x="239" y="40" type="curve" smooth="yes"/>
      <point x="239" y="893" type="line"/>
      <point x="65" y="893" type="line"/>
      <point x="65" y="920" type="line"/>
    </contour>
  </outline>
</glyph>
<glyph name="circumflex" format="2">
  <advance width="769"/>
  <unicode hex="02C6"/>
  <outline>
    <contour>
      <point x="384" y="1450" type="line"/>
      <point x="113" y="1305" type="line"/>
      <point x="100" y="1320" type="line"/>
      <point x="320" y="1540" type="line"/>
      <point x="450" y="1540" type="line"/>
      <point x="670" y="1320" type="line"/>
      <point x="656" y="1305" type="line"/>
    </contour>
  </outline>
</glyph>
<glyph name="ring" format="2">
  <advance width="639"/>
  <unicode hex="02DA"/>
  <outline>
    <contour>
      <point x="140" y="1360" type="curve" smooth="yes"/>
      <point x="140" y="1462"/>
      <point x="218" y="1540"/>
      <point x="320" y="1540" type="curve" smooth="yes"/>
      <point x="422" y="1540"/>
      <point x="500" y="1462"/>
      <point x="500" y="1360" type="curve" smooth="yes"/>
      <point x="500" y="1258"/>
      <point x="422" y="1180"/>
      <point x="320" y="1180" type="curve" smooth="yes"/>
      <point x="218" y="1180"/>
      <point x="140" y="1258"/>
    </contour>
    <contour>
      <point x="213" y="1360" type="curve" smooth="yes"/>
      <point x="213" y="1281"/>
      <point x="239" y="1207"/>
      <point x="320" y="1207" type="curve" smooth="yes"/>
      <point x="401" y="1207"/>
      <point x="427" y="1281"/>
      <point x="427" y="1360" type="curve" smooth="yes"/>
      <point x="427" y="1439"/>
      <point x="401" y="1513"/>
      <point x="320" y="1513" type="curve" smooth="yes"/>
      <point x="239" y="1513"/>
      <point x="213" y="1439"/>
    </contour>
  </outline>
</glyph>
<glyph name="ogonek" format="2">
  <advance width="1099"/>
  <unicode hex="02DB"/>
  <outline>
    <contour>
      <point x="776" y="-226" type="line"/>
      <point x="746" y="-282"/>
      <point x="688" y="-372"/>
      <point x="546" y="-372" type="curve" smooth="yes"/>
      <point x="444" y="-372"/>
      <point x="330" y="-320"/>
      <point x="330" y="-200" type="curve" smooth="yes"/>
      <point x="330" y="-40"/>
      <point x="486" y="46"/>
      <point x="608" y="86" type="curve"/>
      <point x="619" y="70" type="line"/>
      <point x="557" y="36"/>
      <point x="516" y="-50"/>
      <point x="516" y="-163" type="curve" smooth="yes"/>
      <point x="516" y="-250"/>
      <point x="556" y="-316"/>
      <point x="624" y="-316" type="curve" smooth="yes"/>
      <point x="691" y="-316"/>
      <point x="726" y="-269"/>
      <point x="759" y="-214" type="curve"/>
    </contour>
  </outline>
</glyph>
<glyph name="tilde" format="2">
  <advance width="895"/>
  <unicode hex="02DC"/>
  <outline>
    <contour>
      <point x="259" y="1338" type="curve" smooth="yes"/>
      <point x="193" y="1338"/>
      <point x="127" y="1304"/>
      <point x="127" y="1200" type="curve"/>
      <point x="100" y="1200" type="line"/>
      <point x="100" y="1370"/>
      <point x="208" y="1454"/>
      <point x="306" y="1454" type="curve" smooth="yes"/>
      <point x="457" y="1454"/>
      <point x="532" y="1296"/>
      <point x="637" y="1296" type="curve" smooth="yes"/>
      <point x="716" y="1296"/>
      <point x="769" y="1330"/>
      <point x="769" y="1434" type="curve"/>
      <point x="796" y="1434" type="line"/>
      <point x="796" y="1244"/>
      <point x="728" y="1180"/>
      <point x="610" y="1180" type="curve" smooth="yes"/>
      <point x="464" y="1180"/>
      <point x="378" y="1338"/>
    </contour>
  </outline>
</glyph>
<glyph name="pi" format="2">
  <advance width="1161"/>
  <unicode hex="03C0"/>
  <outline>
    <contour>
      <point x="1092" y="206" type="line"/>
      <point x="1046" y="66"/>
      <point x="976" y="-20"/>
      <point x="876" y="-20" type="curve" smooth="yes"/>
      <point x="782" y="-20"/>
      <point x="692" y="28"/>
      <point x="692" y="146" type="curve" smooth="yes"/>
      <point x="692" y="840" type="line"/>
      <point x="872" y="840" type="line"/>
      <point x="872" y="180" type="line" smooth="yes"/>
      <point x="872" y="140"/>
      <point x="898" y="108"/>
      <point x="946" y="108" type="curve" smooth="yes"/>
      <point x="995" y="108"/>
      <point x="1033" y="137"/>
      <point x="1074" y="218" type="curve"/>
    </contour>
    <contour>
      <point x="208" y="-20" type="curve" smooth="yes"/>
      <point x="126" y="-20"/>
      <point x="90" y="26"/>
      <point x="90" y="76" type="curve" smooth="yes"/>
      <point x="90" y="212"/>
      <point x="314" y="164"/>
      <point x="314" y="558" type="curve" smooth="yes"/>
      <point x="314" y="900" type="line"/>
      <point x="426" y="900" type="line"/>
      <point x="426" y="486" type="line" smooth="yes"/>
      <point x="426" y="170"/>
      <point x="344" y="-20"/>
    </contour>
    <contour>
      <point x="1052" y="920" type="line"/>
      <point x="1052" y="740" type="line"/>
      <point x="109" y="740" type="line"/>
      <point x="109" y="590" type="line"/>
      <point x="82" y="590" type="line"/>
      <point x="82" y="920" type="line"/>
    </contour>
  </outline>
</glyph>
<glyph name="uni1E9E" format="2">
  <advance width="1601"/>
  <unicode hex="1E9E"/>
  <outline>
    <contour>
      <point x="30" y="27" type="line"/>
      <point x="590" y="27" type="line"/>
      <point x="590" y="0" type="line"/>
      <point x="30" y="0" type="line"/>
    </contour>
    <contour>
      <point x="1046" y="807" type="line"/>
      <point x="979" y="816"/>
      <point x="913" y="823"/>
      <point x="846" y="830" type="curve"/>
      <point x="1307" y="1400" type="line"/>
      <point x="1226" y="1447"/>
      <point x="1092" y="1492"/>
      <point x="926" y="1492" type="curve" smooth="yes"/>
      <point x="578" y="1492"/>
      <point x="410" y="1206"/>
      <point x="410" y="862" type="curve" smooth="yes"/>
      <point x="410" y="0" type="line"/>
      <point x="210" y="0" type="line"/>
      <point x="210" y="882" type="line" smooth="yes"/>
      <point x="210" y="1288"/>
      <point x="520" y="1520"/>
      <point x="926" y="1520" type="curve" smooth="yes"/>
      <point x="1232" y="1520"/>
      <point x="1402" y="1388"/>
      <point x="1462" y="1322" type="curve"/>
    </contour>
    <contour>
      <point x="657" y="214" type="curve"/>
      <point x="664" y="131"/>
      <point x="777" y="12"/>
      <point x="982" y="12" type="curve" smooth="yes"/>
      <point x="1220" y="12"/>
      <point x="1310" y="192"/>
      <point x="1310" y="380" type="curve" smooth="yes"/>
      <point x="1310" y="528"/>
      <point x="1284" y="804"/>
      <point x="846" y="804" type="curve"/>
      <point x="846" y="830" type="line"/>
      <point x="1428" y="830"/>
      <point x="1522" y="600"/>
      <point x="1522" y="380" type="curve" smooth="yes"/>
      <point x="1522" y="120"/>
      <point x="1304" y="-20"/>
      <point x="1022" y="-20" type="curve" smooth="yes"/>
      <point x="738" y="-20"/>
      <point x="610" y="128"/>
      <point x="610" y="272" type="curve" smooth="yes"/>
      <point x="610" y="354"/>
      <point x="660" y="402"/>
      <point x="730" y="402" type="curve" smooth="yes"/>
      <point x="790" y="402"/>
      <point x="838" y="362"/>
      <point x="838" y="290" type="curve" smooth="yes"/>
      <point x="838" y="226"/>
      <point x="782" y="180"/>
      <point x="724" y="180" type="curve" smooth="yes"/>
      <point x="690" y="180"/>
      <point x="665" y="199"/>
    </contour>
  </outline>
</glyph>
<glyph name="Euro" format="2">
  <advance width="1419"/>
  <unicode hex="20AC"/>
  <outline>
    <contour>
      <point x="1262" y="1301" type="curve"/>
      <point x="1229" y="1374"/>
      <point x="1120" y="1490"/>
      <point x="938" y="1490" type="curve" smooth="yes"/>
      <point x="600" y="1490"/>
      <point x="480" y="1098"/>
      <point x="480" y="750" type="curve" smooth="yes"/>
      <point x="480" y="362"/>
      <point x="632" y="13"/>
      <point x="890" y="13" type="curve" smooth="yes"/>
      <point x="1087" y="13"/>
      <point x="1226" y="180"/>
      <point x="1276" y="356" type="curve"/>
      <point x="1306" y="356" type="line"/>
      <point x="1254" y="162"/>
      <point x="1108" y="-20"/>
      <point x="866" y="-20" type="curve" smooth="yes"/>
      <point x="564" y="-20"/>
      <point x="250" y="290"/>
      <point x="250" y="750" type="curve" smooth="yes"/>
      <point x="250" y="1170"/>
      <point x="516" y="1520"/>
      <point x="918" y="1520" type="curve" smooth="yes"/>
      <point x="1162" y="1520"/>
      <point x="1310" y="1336"/>
      <point x="1310" y="1232" type="curve" smooth="yes"/>
      <point x="1310" y="1150"/>
      <point x="1256" y="1108"/>
      <point x="1196" y="1108" type="curve" smooth="yes"/>
      <point x="1146" y="1108"/>
      <point x="1082" y="1140"/>
      <point x="1082" y="1220" type="curve" smooth="yes"/>
      <point x="1082" y="1290"/>
      <point x="1138" y="1330"/>
      <point x="1196" y="1330" type="curve" smooth="yes"/>
      <point x="1232" y="1330"/>
      <point x="1254" y="1310"/>
    </contour>
    <component base="equal" xOffset="-60" yOffset="-140"/>
  </outline>
</glyph>
<glyph name="uni2116" format="2">
  <advance width="2212"/>
  <unicode hex="2116"/>
  <outline>
    <contour>
      <point x="1651" y="1140" type="curve" smooth="yes"/>
      <point x="1651" y="912"/>
      <point x="1701" y="787"/>
      <point x="1819" y="787" type="curve" smooth="yes"/>
      <point x="1937" y="787"/>
      <point x="1987" y="912"/>
      <point x="1987" y="1140" type="curve" smooth="yes"/>
      <point x="1987" y="1368"/>
      <point x="1937" y="1492"/>
      <point x="1819" y="1492" type="curve" smooth="yes"/>
      <point x="1701" y="1492"/>
      <point x="1651" y="1368"/>
    </contour>
    <contour>
      <point x="1481" y="1140" type="curve" smooth="yes"/>
      <point x="1481" y="1380"/>
      <point x="1617" y="1520"/>
      <point x="1819" y="1520" type="curve" smooth="yes"/>
      <point x="2021" y="1520"/>
      <point x="2158" y="1380"/>
      <point x="2158" y="1140" type="curve" smooth="yes"/>
      <point x="2158" y="900"/>
      <point x="2021" y="760"/>
      <point x="1819" y="760" type="curve" smooth="yes"/>
      <point x="1617" y="760"/>
      <point x="1481" y="900"/>
    </contour>
    <component base="hyphen" xOffset="1459" yOffset="80"/>
    <component base="N"/>
  </outline>
</glyph>
<glyph name="uniFB00" format="2">
  <advance width="2797"/>
  <unicode hex="FB00"/>
  <outline>
    <contour>
      <point x="124" y="56" type="line"/>
      <point x="2527" y="56" type="line"/>
      <point x="2527" y="0" type="line"/>
      <point x="124" y="0" type="line"/>
    </contour>
    <contour>
      <point x="124" y="1884" type="line"/>
      <point x="2609" y="1884" type="line"/>
      <point x="2609" y="1828" type="line"/>
      <point x="124" y="1828" type="line"/>
    </contour>
    <contour>
      <point x="1837" y="2590" type="curve"/>
      <point x="1822" y="2677"/>
      <point x="1664" y="2852"/>
      <point x="1390" y="2852" type="curve" smooth="yes"/>
      <point x="1045" y="2852"/>
      <point x="860" y="2527"/>
      <point x="860" y="2007" type="curve" smooth="yes"/>
      <point x="860" y="0" type="line"/>
      <point x="492" y="0" type="line"/>
      <point x="492" y="1892" type="line" smooth="yes"/>
      <point x="492" y="2429"/>
      <point x="841" y="2908"/>
      <point x="1390" y="2908" type="curve" smooth="yes"/>
      <point x="1732" y="2908"/>
      <point x="1946" y="2662"/>
      <point x="1946" y="2469" type="curve" smooth="yes"/>
      <point x="1946" y="2301"/>
      <point x="1835" y="2215"/>
      <point x="1712" y="2215" type="curve" smooth="yes"/>
      <point x="1610" y="2215"/>
      <point x="1482" y="2283"/>
      <point x="1482" y="2442" type="curve" smooth="yes"/>
      <point x="1482" y="2594"/>
      <point x="1592" y="2661"/>
      <point x="1706" y="2661" type="curve" smooth="yes"/>
      <point x="1764" y="2661"/>
      <point x="1815" y="2635"/>
    </contour>
    <contour>
      <point x="2905" y="2818" type="curve"/>
      <point x="2875" y="2925"/>
      <point x="2730" y="3057"/>
      <point x="2486" y="3057" type="curve" smooth="yes"/>
      <point x="2158" y="3057"/>
      <point x="2048" y="2732"/>
      <point x="2048" y="2212" type="curve" smooth="yes"/>
      <point x="2048" y="0" type="line"/>
      <point x="1680" y="0" type="line"/>
      <point x="1680" y="2097" type="line" smooth="yes"/>
      <point x="1680" y="2634"/>
      <point x="1954" y="3113"/>
      <point x="2486" y="3113" type="curve" smooth="yes"/>
      <point x="2818" y="3113"/>
      <point x="2990" y="2900"/>
      <point x="2990" y="2707" type="curve" smooth="yes"/>
      <point x="2990" y="2539"/>
      <point x="2879" y="2454"/>
      <point x="2756" y="2454" type="curve" smooth="yes"/>
      <point x="2654" y="2454"/>
      <point x="2527" y="2520"/>
      <point x="2527" y="2679" type="curve" smooth="yes"/>
      <point x="2527" y="2831"/>
      <point x="2636" y="2899"/>
      <point x="2743" y="2899" type="curve" smooth="yes"/>
      <point x="2814" y="2899"/>
      <point x="2877" y="2871"/>
    </contour>
  </outline>
</glyph>
<glyph name="uniFB01" format="2">
  <advance width="1199"/>
  <unicode hex="FB01"/>
  <outline>
    <contour>
      <point x="240" y="1024" type="line" smooth="yes"/>
      <point x="240" y="1286"/>
      <point x="403" y="1520"/>
      <point x="701" y="1520" type="curve" smooth="yes"/>
      <point x="898" y="1520"/>
      <point x="990" y="1425"/>
      <point x="990" y="1309" type="curve" smooth="yes"/>
      <point x="990" y="1227"/>
      <point x="936" y="1185"/>
      <point x="876" y="1185" type="curve" smooth="yes"/>
      <point x="824" y="1185"/>
      <point x="764" y="1219"/>
      <point x="764" y="1293" type="curve" smooth="yes"/>
      <point x="764" y="1365"/>
      <point x="818" y="1402"/>
      <point x="870" y="1402" type="curve" smooth="yes"/>
      <point x="912" y="1402"/>
      <point x="940" y="1383"/>
      <point x="949" y="1362" type="curve"/>
      <point x="935" y="1424"/>
      <point x="865" y="1493"/>
      <point x="701" y="1493" type="curve" smooth="yes"/>
      <point x="490" y="1493"/>
      <point x="420" y="1334"/>
      <point x="420" y="1080" type="curve" smooth="yes"/>
      <point x="420" y="0" type="line"/>
      <point x="240" y="0" type="line"/>
    </contour>
    <contour>
      <point x="61" y="27" type="line"/>
      <point x="1120" y="27" type="line"/>
      <point x="1120" y="0" type="line"/>
      <point x="61" y="0" type="line"/>
    </contour>
    <contour>
      <point x="800" y="893" type="line"/>
      <point x="61" y="893" type="line"/>
      <point x="61" y="920" type="line"/>
      <point x="980" y="920" type="line"/>
      <point x="980" y="0" type="line"/>
      <point x="800" y="0" type="line"/>
    </contour>
  </outline>
</glyph>
<glyph name="uniFB02" format="2">
  <advance width="1229"/>
  <unicode hex="FB02"/>
  <outline>
    <contour>
      <point x="61" y="27" type="line"/>
      <point x="1160" y="27" type="line"/>
      <point x="1160" y="0" type="line"/>
      <point x="61" y="0" type="line"/>
    </contour>
    <contour>
      <point x="61" y="920" type="line"/>
      <point x="694" y="920" type="line"/>
      <point x="694" y="893" type="line"/>
      <point x="61" y="893" type="line"/>
    </contour>
    <contour>
      <point x="827" y="1460" type="line"/>
      <point x="1007" y="1540" type="line"/>
      <point x="1007" y="0" type="line"/>
      <point x="827" y="0" type="line"/>
    </contour>
    <contour>
      <point x="852" y="1375" type="curve"/>
      <point x="844" y="1435"/>
      <point x="768" y="1493"/>
      <point x="650" y="1493" type="curve" smooth="yes"/>
      <point x="463" y="1493"/>
      <point x="420" y="1334"/>
      <point x="420" y="1080" type="curve" smooth="yes"/>
      <point x="420" y="0" type="line"/>
      <point x="240" y="0" type="line"/>
      <point x="240" y="1024" type="line" smooth="yes"/>
      <point x="240" y="1286"/>
      <point x="390" y="1520"/>
      <point x="650" y="1520" type="curve" smooth="yes"/>
      <point x="812" y="1520"/>
      <point x="898" y="1422"/>
      <point x="898" y="1315" type="curve" smooth="yes"/>
      <point x="898" y="1233"/>
      <point x="844" y="1191"/>
      <point x="784" y="1191" type="curve" smooth="yes"/>
      <point x="734" y="1191"/>
      <point x="672" y="1219"/>
      <point x="672" y="1299" type="curve" smooth="yes"/>
      <point x="672" y="1376"/>
      <point x="727" y="1410"/>
      <point x="785" y="1410" type="curve" smooth="yes"/>
      <point x="822" y="1410"/>
      <point x="846" y="1377"/>
    </contour>
  </outline>
</glyph>
<glyph name="uniFB03" format="2">
  <advance width="1779"/>
  <unicode hex="FB03"/>
  <outline>
    <contour>
      <point x="820" y="1026" type="line" smooth="yes"/>
      <point x="820" y="1288"/>
      <point x="986" y="1521"/>
      <point x="1281" y="1521" type="curve" smooth="yes"/>
      <point x="1478" y="1521"/>
      <point x="1569" y="1425"/>
      <point x="1569" y="1309" type="curve" smooth="yes"/>
      <point x="1569" y="1227"/>
      <point x="1516" y="1185"/>
      <point x="1456" y="1185" type="curve" smooth="yes"/>
      <point x="1404" y="1185"/>
      <point x="1344" y="1219"/>
      <point x="1344" y="1293" type="curve" smooth="yes"/>
      <point x="1344" y="1365"/>
      <point x="1398" y="1403"/>
      <point x="1450" y="1403" type="curve" smooth="yes"/>
      <point x="1489" y="1403"/>
      <point x="1523" y="1383"/>
      <point x="1532" y="1362" type="curve"/>
      <point x="1520" y="1419"/>
      <point x="1445" y="1494"/>
      <point x="1281" y="1494" type="curve" smooth="yes"/>
      <point x="1073" y="1494"/>
      <point x="1000" y="1348"/>
      <point x="1000" y="1082" type="curve" smooth="yes"/>
      <point x="1000" y="1" type="line"/>
      <point x="820" y="1" type="line"/>
    </contour>
    <contour>
      <point x="61" y="27" type="line"/>
      <point x="1700" y="27" type="line"/>
      <point x="1700" y="0" type="line"/>
      <point x="61" y="0" type="line"/>
    </contour>
    <contour>
      <point x="240" y="924" type="line" smooth="yes"/>
      <point x="240" y="1185"/>
      <point x="408" y="1420"/>
      <point x="679" y="1420" type="curve" smooth="yes"/>
      <point x="846" y="1420"/>
      <point x="950" y="1307"/>
      <point x="950" y="1206" type="curve" smooth="yes"/>
      <point x="950" y="1124"/>
      <point x="896" y="1082"/>
      <point x="836" y="1082" type="curve" smooth="yes"/>
      <point x="786" y="1082"/>
      <point x="724" y="1114"/>
      <point x="724" y="1192" type="curve" smooth="yes"/>
      <point x="724" y="1266"/>
      <point x="778" y="1302"/>
      <point x="830" y="1302" type="curve" smooth="yes"/>
      <point x="865" y="1302"/>
      <point x="888" y="1288"/>
      <point x="901" y="1262" type="curve"/>
      <point x="893" y="1308"/>
      <point x="813" y="1393"/>
      <point x="679" y="1393" type="curve" smooth="yes"/>
      <point x="507" y="1393"/>
      <point x="420" y="1234"/>
      <point x="420" y="980" type="curve" smooth="yes"/>
      <point x="420" y="0" type="line"/>
      <point x="240" y="0" type="line"/>
    </contour>
    <contour>
      <point x="1380" y="893" type="line"/>
      <point x="61" y="893" type="line"/>
      <point x="61" y="920" type="line"/>
      <point x="1560" y="920" type="line"/>
      <point x="1560" y="0" type="line"/>
      <point x="1380" y="0" type="line"/>
    </contour>
  </outline>
</glyph>
<glyph name="uniFB04" format="2">
  <advance width="3657"/>
  <unicode hex="FB04"/>
  <outline>
    <contour>
      <point x="124" y="56" type="line"/>
      <point x="3537" y="56" type="line"/>
      <point x="3537" y="0" type="line"/>
      <point x="124" y="0" type="line"/>
    </contour>
    <contour>
      <point x="124" y="1884" type="line"/>
      <point x="2581" y="1884" type="line"/>
      <point x="2581" y="1828" type="line"/>
      <point x="124" y="1828" type="line"/>
    </contour>
    <contour>
      <point x="2853" y="2990" type="line"/>
      <point x="3222" y="3154" type="line"/>
      <point x="3222" y="0" type="line"/>
      <point x="2853" y="0" type="line"/>
    </contour>
    <contour>
      <point x="1811" y="2590" type="curve"/>
      <point x="1788" y="2684"/>
      <point x="1644" y="2852"/>
      <point x="1370" y="2852" type="curve" smooth="yes"/>
      <point x="1032" y="2852"/>
      <point x="860" y="2527"/>
      <point x="860" y="2007" type="curve" smooth="yes"/>
      <point x="860" y="0" type="line"/>
      <point x="492" y="0" type="line"/>
      <point x="492" y="1892" type="line" smooth="yes"/>
      <point x="492" y="2429"/>
      <point x="828" y="2908"/>
      <point x="1370" y="2908" type="curve" smooth="yes"/>
      <point x="1712" y="2908"/>
      <point x="1919" y="2662"/>
      <point x="1919" y="2469" type="curve" smooth="yes"/>
      <point x="1919" y="2301"/>
      <point x="1808" y="2215"/>
      <point x="1685" y="2215" type="curve" smooth="yes"/>
      <point x="1583" y="2215"/>
      <point x="1455" y="2283"/>
      <point x="1455" y="2442" type="curve" smooth="yes"/>
      <point x="1455" y="2594"/>
      <point x="1566" y="2661"/>
      <point x="1673" y="2661" type="curve" smooth="yes"/>
      <point x="1742" y="2661"/>
      <point x="1787" y="2635"/>
    </contour>
    <contour>
      <point x="2895" y="2809" type="curve"/>
      <point x="2894" y="2911"/>
      <point x="2747" y="3057"/>
      <point x="2491" y="3057" type="curve" smooth="yes"/>
      <point x="2108" y="3057"/>
      <point x="2021" y="2732"/>
      <point x="2021" y="2212" type="curve" smooth="yes"/>
      <point x="2021" y="0" type="line"/>
      <point x="1653" y="0" type="line"/>
      <point x="1653" y="2097" type="line" smooth="yes"/>
      <point x="1653" y="2634"/>
      <point x="1959" y="3113"/>
      <point x="2491" y="3113" type="curve" smooth="yes"/>
      <point x="2823" y="3113"/>
      <point x="2994" y="2913"/>
      <point x="2994" y="2693" type="curve" smooth="yes"/>
      <point x="2994" y="2525"/>
      <point x="2883" y="2439"/>
      <point x="2760" y="2439" type="curve" smooth="yes"/>
      <point x="2658" y="2439"/>
      <point x="2530" y="2497"/>
      <point x="2530" y="2661" type="curve" smooth="yes"/>
      <point x="2530" y="2818"/>
      <point x="2641" y="2886"/>
      <point x="2761" y="2886" type="curve" smooth="yes"/>
      <point x="2837" y="2886"/>
      <point x="2883" y="2821"/>
    </contour>
  </outline>
</glyph>
<glyph name="R.alt" format="2">
  <advance width="1381"/>
  <outline>
    <contour>
      <point x="713" y="758" type="curve" smooth="yes"/>
      <point x="414" y="758" type="line"/>
      <point x="414" y="775" type="line"/>
      <point x="713" y="775" type="line" smooth="yes"/>
      <point x="905" y="775"/>
      <point x="1013" y="904"/>
      <point x="1013" y="1122" type="curve" smooth="yes"/>
      <point x="1013" y="1340"/>
      <point x="905" y="1473"/>
      <point x="713" y="1473" type="curve" smooth="yes"/>
      <point x="53" y="1473" type="line"/>
      <point x="53" y="1500" type="line"/>
      <point x="713" y="1500" type="line" smooth="yes"/>
      <point x="1015" y="1500"/>
      <point x="1213" y="1382"/>
      <point x="1213" y="1122" type="curve" smooth="yes"/>
      <point x="1213" y="862"/>
      <point x="1035" y="758"/>
    </contour>
    <contour>
      <point x="53" y="27" type="line"/>
      <point x="683" y="27" type="line"/>
      <point x="683" y="0" type="line"/>
      <point x="53" y="0" type="line"/>
    </contour>
    <contour>
      <point x="273" y="1500" type="line"/>
      <point x="463" y="1500" type="line"/>
      <point x="463" y="0" type="line"/>
      <point x="273" y="0" type="line"/>
    </contour>
    <contour>
      <point x="1343" y="0" type="line"/>
      <point x="1311" y="0"/>
      <point x="1276" y="0"/>
      <point x="1204" y="0" type="curve" smooth="yes"/>
      <point x="738" y="0"/>
      <point x="1176" y="748"/>
      <point x="704" y="748" type="curve" smooth="yes"/>
      <point x="414" y="748" type="line"/>
      <point x="414" y="764" type="line"/>
      <point x="744" y="764" type="line" smooth="yes"/>
      <point x="1430" y="764"/>
      <point x="1047" y="27"/>
      <point x="1273" y="27" type="curve" smooth="yes"/>
      <point x="1315" y="27"/>
      <point x="1315" y="27"/>
      <point x="1343" y="27" type="curve"/>
    </contour>
  </outline>
</glyph>
<glyph name="fj.lig" format="2">
  <advance width="1129"/>
  <outline>
    <contour>
      <point x="61" y="27" type="line"/>
      <point x="610" y="27" type="line"/>
      <point x="610" y="0" type="line"/>
      <point x="61" y="0" type="line"/>
    </contour>
    <contour>
      <point x="950" y="-24" type="line" smooth="yes"/>
      <point x="950" y="-286"/>
      <point x="897" y="-520"/>
      <point x="637" y="-520" type="curve" smooth="yes"/>
      <point x="475" y="-520"/>
      <point x="391" y="-416"/>
      <point x="391" y="-302" type="curve" smooth="yes"/>
      <point x="391" y="-220"/>
      <point x="444" y="-178"/>
      <point x="504" y="-178" type="curve" smooth="yes"/>
      <point x="554" y="-178"/>
      <point x="616" y="-206"/>
      <point x="616" y="-286" type="curve" smooth="yes"/>
      <point x="616" y="-363"/>
      <point x="563" y="-397"/>
      <point x="501" y="-397" type="curve" smooth="yes"/>
      <point x="472" y="-397"/>
      <point x="441" y="-379"/>
      <point x="430" y="-359" type="curve"/>
      <point x="442" y="-426"/>
      <point x="518" y="-493"/>
      <point x="626" y="-493" type="curve" smooth="yes"/>
      <point x="806" y="-493"/>
      <point x="771" y="-214"/>
      <point x="771" y="40" type="curve" smooth="yes"/>
      <point x="771" y="893" type="line"/>
      <point x="61" y="893" type="line"/>
      <point x="61" y="920" type="line"/>
      <point x="950" y="920" type="line"/>
    </contour>
    <contour>
      <point x="922" y="1366" type="curve"/>
      <point x="908" y="1426"/>
      <point x="836" y="1493"/>
      <point x="674" y="1493" type="curve" smooth="yes"/>
      <point x="482" y="1493"/>
      <point x="420" y="1334"/>
      <point x="420" y="1080" type="curve" smooth="yes"/>
      <point x="420" y="0" type="line"/>
      <point x="240" y="0" type="line"/>
      <point x="240" y="1024" type="line" smooth="yes"/>
      <point x="240" y="1286"/>
      <point x="374" y="1520"/>
      <point x="674" y="1520" type="curve" smooth="yes"/>
      <point x="876" y="1520"/>
      <point x="960" y="1423"/>
      <point x="960" y="1309" type="curve" smooth="yes"/>
      <point x="960" y="1227"/>
      <point x="907" y="1185"/>
      <point x="847" y="1185" type="curve" smooth="yes"/>
      <point x="797" y="1185"/>
      <point x="734" y="1213"/>
      <point x="734" y="1293" type="curve" smooth="yes"/>
      <point x="734" y="1363"/>
      <point x="794" y="1402"/>
      <point x="845" y="1402" type="curve" smooth="yes"/>
      <point x="888" y="1402"/>
      <point x="913" y="1384"/>
    </contour>
  </outline>
</glyph>
